<svg xmlns="http://www.w3.org/2000/svg" width="102.51" height="90.21" viewBox="0 0 102.51 90.21">
  <title>Element 5</title>
  <g id="Ebene_2">
    <g id="Layer_1">
      <g>
        <path d="M102.51,52,89.33,68.49,83.54,68l-1.11-.09-2.68-2.81-2,2.4L71,66.9l4.12,11.89,2.65,7.62-26.54,3.8L25.92,86.58l-1.21-.17L31.49,66.9l-4.41.38-13.9,1.21L0,52l.49-.7,8.1-11.76,3.9-18S23,12.65,25.78,11.73L51.25,7.4l25.47,4.33c2.75.92,13.3,9.83,13.3,9.83l3.9,18,5.67,8.22Z" fill="#e8e8e8"/>
        <path d="M51.25,0,27,4.12C24.43,5,14.4,13.47,14.4,13.47L10.69,30.6,2.53,42.45,15.05,58.08l17.41-1.51L26,74.86l25.23,3.61,25.23-3.61L70.05,56.57l17.41,1.51L100,42.45,91.82,30.6,88.11,13.47S78.07,5,75.47,4.12l-2-.34L71,6.14,69,3Z" fill="#f4f4f4"/>
        <polygon points="74.29 12.39 84.82 13.88 74.99 6.21 74.29 6.11 74.29 12.39" fill="#f9f9f9"/>
        <polygon points="68.06 5.17 51.25 2.64 27.69 6.21 17.05 15.15 13.17 30.7 6.39 39.24 11.5 39.24 21.88 29.94 35.77 37.68 27.55 23.29 29.97 17.36 51.25 9.11 66.49 11.28 68.06 5.17" fill="#f9f9f9"/>
        <polygon points="102.51 52.04 99.98 42.45 87.45 58.08 89.33 68.49 102.51 52.04" fill="#c8c8c8"/>
        <polygon points="2.53 42.45 0 52.04 13.17 68.49 15.05 58.08 2.53 42.45" fill="#e8e8e8"/>
        <polygon points="26.02 74.86 24.71 86.41 51.25 90.21 77.79 86.41 76.48 74.86 51.25 78.47 26.02 74.86" fill="#e8e8e8"/>
        <g>
          <polygon points="51.25 51.23 51.25 51.23 51.25 51.23 51.25 51.23" fill="#c8c8c8"/>
          <polygon points="51.25 51.23 45.88 61.93 51.25 61.93 56.63 61.93 51.25 51.23" fill="#c8c8c8"/>
        </g>
        <polygon points="19.28 49.4 12.45 40.58 22.11 33.63 39.19 44.19 35.72 47.88 19.28 49.4" fill="#c8c8c8"/>
        <polygon points="83.23 49.4 90.06 40.58 80.39 33.63 63.32 44.19 66.79 47.88 79.42 49.05 80.33 50.22 81.54 49.24 83.23 49.4" fill="#c8c8c8"/>
        <polygon points="15.05 58.08 13.17 68.49 28.74 67.14 32.46 56.57 15.05 58.08" fill="#c8c8c8"/>
        <polygon points="51.25 90.21 51.25 78.47 76.48 74.86 77.79 86.41 51.25 90.21" fill="#c8c8c8"/>
        <polygon points="12.45 40.58 22.11 33.63 39.19 44.19 36.76 46.77 21.88 37.94 14.34 43.02 12.45 40.58" fill="#b2b2b2"/>
        <polygon points="90.06 40.58 80.39 33.63 63.32 44.19 65.75 46.77 80.62 37.94 88.17 43.02 90.06 40.58" fill="#b2b2b2"/>
        <polygon points="48.48 61.93 51.25 57.14 54.23 61.93 56.63 61.93 51.25 51.23 45.88 61.93 48.48 61.93" fill="#b2b2b2"/>
        <polygon points="82.44 67.89 80.38 57.47 81.54 49.24 80.33 50.22 79.42 49.05 76.69 57.14 77.79 67.48 79.75 65.08 82.44 67.89" fill="#b2b2b2"/>
        <polygon points="66.84 24.33 68.98 2.96 71.03 6.14 73.48 3.78 71.61 23.35 74.29 35.24 66.84 24.33" fill="#b2b2b2"/>
        <polygon points="81.54 49.24 80.33 50.22 78.61 57.69 79.75 65.08 82.44 67.89 80.38 57.47 81.54 49.24" fill="#bfbfbf"/>
        <polygon points="73.48 3.78 71.03 6.14 69.35 24.07 74.29 35.24 71.61 23.35 73.48 3.78" fill="#bfbfbf"/>
        <path d="M77.79,86.41l-26.54,3.8L25.92,86.58c.17-.11.26-.27.43-.32.54-.13,1.1.09,1.75,0-.11-.63-.44-1.26.12-1.83.39-.4,1.07-.53,1.32,0,1.84-.37,1.16.77,2.56,1.65.7.44,2,.25,2.83.42.1-.75-.47-1.92.23-2.39s2.65.44,3.13.85c0-.78-.37-5,.47-5.2a10.49,10.49,0,0,1,2.83,1.4c.6.75,0,1.46-.36,2.19,1.94-.12,2.55,2.5,4,2,.9-.3,1.2-1.52,1.76-1.92s.91-.32,1.68-.28,2.16-.18,2.41.47-.54.68,0,1.36A6.89,6.89,0,0,0,54,86.11c1.22.07,1.56-1.15,2.42-2-1.07-.29.22-1.42.71-1.68,1.08-.59,1.43-.06,2.44.68,2.12,1.55,6.59-.64,8.06,1.85,1.11-.57,3.28-.89,4.08-1.68.32-.32.54-1.25.89-1.69s.55-.57.81-1c.65-1,.89-1.6,1.74-1.85Z" fill="#b2b2b2" opacity="0.5"/>
        <path d="M102.51,52,89.33,68.49,83.54,68a1.09,1.09,0,0,1,.38-.69,3.52,3.52,0,0,1,2.12.5c.12-.69.94-.51,1.5-.52.43-1-.52-1.83-.32-2.91a4.31,4.31,0,0,1,1.21-2.24c.8-.43,1,.34,1.79.39,2.12.11.93-2.6,1.15-3.72.34-1.71,2.68-4.21,4.41-4.51.31.81,1,.48,1.52.22.06.11.19.24.23.33.93-.7.62-2.31.67-3.37a9.44,9.44,0,0,1,2.13.19c-.63-1-1.68-2-1.18-3.24a1.8,1.8,0,0,1,.44-.61Z" fill="#b2b2b2" opacity="0.5"/>
        <path d="M29.28,64.17c-1,.06-.72.76-.92,1.46a3,3,0,0,1-1.28,1.65l-13.9,1.21L0,52l.49-.7a4.67,4.67,0,0,1,1.08.82c.51.49.65,1.07,1.18,1.57s.73.4,1.06,1c.24.41.22.9.45,1.29,0,0,.53.32.64.44a18.68,18.68,0,0,1,1.19,1.8c.51.81,1,2.26,2.06,1.55.3-.2.07-.85.54-.93s.71.65,1,.93a3.8,3.8,0,0,0,2.73,1.54c.89,0,1.15-.36,1.67.32a5.14,5.14,0,0,1,.4,1.91c.18,1.21.33,1.54,1.72,1.11-.17-1.22,2.12-2.58,3.18-2.46.89.1.3.26.81.74a3.06,3.06,0,0,0,2.43.88c2,0,5.26-2.51,6.31.19A3.2,3.2,0,0,1,29.28,64.17Z" fill="#b2b2b2" opacity="0.5"/>
      </g>
    </g>
  </g>
</svg>
