<svg xmlns="http://www.w3.org/2000/svg" xmlns:xlink="http://www.w3.org/1999/xlink" width="105.06" height="136.55" viewBox="0 0 105.06 136.55">
  <defs>
    <linearGradient id="linear-gradient" x1="52.53" y1="42.34" x2="52.53" y2="5.94" gradientUnits="userSpaceOnUse">
      <stop offset="0" stop-color="#9c9c9c"/>
      <stop offset="1" stop-color="#fff"/>
    </linearGradient>
    <linearGradient id="linear-gradient-2" x1="52.53" y1="34.84" x2="52.53" gradientUnits="userSpaceOnUse">
      <stop offset="0" stop-color="#e8e8e8"/>
      <stop offset="1" stop-color="#fff"/>
    </linearGradient>
    <linearGradient id="linear-gradient-3" x1="52.53" y1="31.28" x2="52.53" y2="2.9" gradientUnits="userSpaceOnUse">
      <stop offset="0" stop-color="#a7a7a7"/>
      <stop offset="1" stop-color="#fff"/>
    </linearGradient>
    <linearGradient id="linear-gradient-4" x1="52.53" y1="30.22" x2="52.53" y2="2.02" gradientUnits="userSpaceOnUse">
      <stop offset="0" stop-color="#c9c9c9"/>
      <stop offset="1" stop-color="#ebebeb"/>
    </linearGradient>
    <linearGradient id="linear-gradient-5" x1="17.53" y1="50.24" x2="17.53" y2="21.12" gradientUnits="userSpaceOnUse">
      <stop offset="0" stop-color="#f16026"/>
      <stop offset="1" stop-color="#f19e26"/>
    </linearGradient>
    <linearGradient id="linear-gradient-6" x1="17.53" y1="44.24" x2="17.53" y2="16.37" gradientUnits="userSpaceOnUse">
      <stop offset="0" stop-color="#fff07c"/>
      <stop offset="1" stop-color="#ffffe0"/>
    </linearGradient>
    <linearGradient id="linear-gradient-7" x1="17.53" y1="41.39" x2="17.53" y2="18.68" gradientUnits="userSpaceOnUse">
      <stop offset="0" stop-color="#cf5b1d"/>
      <stop offset="1" stop-color="#f19e26"/>
    </linearGradient>
    <linearGradient id="linear-gradient-8" x1="17.53" y1="40.54" x2="17.53" y2="17.98" gradientUnits="userSpaceOnUse">
      <stop offset="0" stop-color="#fca606"/>
      <stop offset="1" stop-color="#fcde06"/>
    </linearGradient>
    <linearGradient id="linear-gradient-9" x1="87.54" y1="50.24" x2="87.54" y2="21.12" xlink:href="#linear-gradient"/>
    <linearGradient id="linear-gradient-10" x1="87.54" y1="44.24" x2="87.54" y2="16.37" xlink:href="#linear-gradient-2"/>
    <linearGradient id="linear-gradient-11" x1="87.54" y1="41.39" x2="87.54" y2="18.68" xlink:href="#linear-gradient-3"/>
    <linearGradient id="linear-gradient-12" x1="87.54" y1="40.54" x2="87.54" y2="17.98" xlink:href="#linear-gradient-4"/>
  </defs>
  <title>Element 2</title>
  <g id="Ebene_2">
    <g id="Layer_1">
      <g>
        <path d="M103.05,98.93l-13,16.21-5.71-.49-1.09-.1-2.65-2.77-1.93,2.37L72,113.58l4.06,11.72,2.61,7.51-26.16,3.74-25-3.57-1.19-.17,6.68-19.23L28.7,114,15,115.14,2,98.93l.48-.69,8-11.59,3.85-17.76s10.41-8.79,13.1-9.69l25.11-4.27L77.64,59.2c2.7.9,13.1,9.69,13.1,9.69l3.85,17.76,5.59,8.1Z" fill="#e8d1a8"/>
        <path d="M52.53,47.63,28.66,51.69c-2.57.87-12.45,9.22-12.45,9.22L12.55,77.79l-8,11.68,12.35,15.41L34,103.39l-6.35,18L52.53,125l24.87-3.57-6.34-18,17.16,1.49,12.34-15.41-8-11.68L88.86,60.91S79,52.56,76.4,51.69l-2-.33L72,53.68l-2-3.13Z" fill="#f4e2bc"/>
        <polygon points="75.24 59.84 85.62 61.32 75.93 53.76 75.23 53.66 75.24 59.84" fill="#f9f9df"/>
        <polygon points="69.1 52.73 52.53 50.24 29.3 53.76 18.82 62.57 15 77.9 8.31 86.31 13.35 86.31 23.58 77.15 37.27 84.77 29.16 70.59 31.55 64.74 52.53 56.61 67.55 58.75 69.1 52.73" fill="#f9f9df"/>
        <polygon points="103.05 98.93 100.56 89.47 88.22 104.88 90.07 115.14 103.05 98.93" fill="#c8a87f"/>
        <polygon points="4.5 89.47 2.01 98.93 15 115.14 16.85 104.88 4.5 89.47" fill="#e8d1a8"/>
        <polygon points="27.66 121.42 26.37 132.8 52.53 136.55 78.69 132.8 77.4 121.42 52.53 124.99 27.66 121.42" fill="#e8d1a8"/>
        <g>
          <g>
            <path d="M74,12.64l-5.34,4.28v.32l-4.91-.63a7,7,0,0,1-4.91-2.83L54,6.62a1.82,1.82,0,0,0-2.84,0l-4.87,7.16a7,7,0,0,1-4.92,2.83l-4.55.58-5.68-4.55-.47,6.48h0a1.22,1.22,0,0,0,.3,1l6.49,7.33a5.41,5.41,0,0,1,1.32,4.46L38.55,33l-.85.08-.34,7.42a1.7,1.7,0,0,0,2.34,1.71l10.39-3.36a8,8,0,0,1,4.88,0l10.39,3.36a1.69,1.69,0,0,0,2.34-1.71l-.34-7.42-.82.13-.21-1.36a5.4,5.4,0,0,1,1.31-4.46l6.49-7.33a1.22,1.22,0,0,0,.3-1h0Z" fill="url(#linear-gradient)"/>
            <path d="M53.92.65,58.7,7.52a6.87,6.87,0,0,0,4.81,2.71l9,1.13c1.26.16,1.93,1.38,1.18,2.21l-6.35,7A5.08,5.08,0,0,0,66,24.85l1.34,8.26a1.66,1.66,0,0,1-2.29,1.64L54.91,31.54a7.89,7.89,0,0,0-4.76,0L40,34.75a1.66,1.66,0,0,1-2.3-1.64L39,24.85a5.11,5.11,0,0,0-1.29-4.27l-6.36-7c-.74-.83-.08-2.05,1.19-2.21l9-1.13a6.91,6.91,0,0,0,4.81-2.71L51.14.65A1.81,1.81,0,0,1,53.92.65Z" fill="url(#linear-gradient-2)"/>
            <path d="M70.06,13.33,70,12.26l-.55.21a1.6,1.6,0,0,0-.57-.19l-7.34-.93a5.55,5.55,0,0,1-3.92-2.23L53.68,3.44a1.48,1.48,0,0,0-2.29,0L47.48,9.12a5.59,5.59,0,0,1-3.93,2.23l-7.34.93a1.75,1.75,0,0,0-.52.16l-.62-.1L35,13.4h0a.94.94,0,0,0,.25.69l5.25,5.71a4.17,4.17,0,0,1,1.08,3.46l-.9,5.8-.09,0,0,.74v.07a1.6,1.6,0,0,0,0,.31v0h0a1.39,1.39,0,0,0,1.86,1l8.19-2.56a6.48,6.48,0,0,1,3.85,0l8.18,2.56a1.39,1.39,0,0,0,1.86-1h0v0a1.07,1.07,0,0,0,0-.31v0l0-.83h-.11l-.88-5.76a4.11,4.11,0,0,1,1.08-3.46l5.24-5.71a.94.94,0,0,0,.25-.76Z" fill="url(#linear-gradient-3)"/>
            <path d="M53.67,2.56l3.9,5.65a5.58,5.58,0,0,0,3.92,2.21l7.31.92c1,.13,1.56,1.13.94,1.8l-5.22,5.68a4.12,4.12,0,0,0-1.08,3.44l1,6.59a1.33,1.33,0,0,1-1.85,1.29L54.45,27.6a6.45,6.45,0,0,0-3.84,0l-8.15,2.54a1.34,1.34,0,0,1-1.86-1.29l1-6.59a4.08,4.08,0,0,0-1.07-3.44l-5.23-5.68c-.62-.67-.09-1.67.94-1.8l7.32-.92a5.54,5.54,0,0,0,3.91-2.21l3.9-5.65A1.47,1.47,0,0,1,53.67,2.56Z" fill="url(#linear-gradient-4)"/>
            <path d="M52.64,3.56c.69,0,1,.55,1.3,1a49.13,49.13,0,0,1,3,5.45,1.72,1.72,0,0,1,.25,1.31c-.17.46-.72.68-1.21.86A41.91,41.91,0,0,0,44.06,19a2.46,2.46,0,0,1-1.7-.78,57.76,57.76,0,0,1-4.81-4.84c-1.14-1.28,1.46-1.53,2.3-1.63,1.27-.14,2.53-.31,3.78-.52a9.05,9.05,0,0,0,3.31-.81,8.4,8.4,0,0,0,2.74-3.07c.68-1.14,1.18-2.55,2.22-3.43a1.35,1.35,0,0,1,.62-.34Z" fill="#fff" opacity="0.2"/>
            <path d="M63.19,27.6c.06.95-.49,1.51-1.52,1.2a15.72,15.72,0,0,0-1.57-.59c0-1,1.57-2.79,2.65-2C63.06,26.39,63.15,27,63.19,27.6Z" fill="#fff" opacity="0.2"/>
          </g>
          <g>
            <path d="M34.68,26.48l-4.27,3.43,0,.25-3.93-.51a5.6,5.6,0,0,1-3.94-2.26l-3.9-5.73a1.46,1.46,0,0,0-2.27,0l-3.9,5.73a5.58,5.58,0,0,1-3.93,2.26l-3.64.47L.37,26.48,0,31.66H0a.94.94,0,0,0,.24.78L5.44,38.3a4.3,4.3,0,0,1,1,3.57l-.14.92-.69.07-.27,5.93a1.36,1.36,0,0,0,1.87,1.37l8.32-2.69a6.34,6.34,0,0,1,3.9,0l8.31,2.69a1.36,1.36,0,0,0,1.88-1.37l-.28-5.93-.65.1-.18-1.09a4.33,4.33,0,0,1,1.06-3.57l5.19-5.86a1,1,0,0,0,.24-.78h0Z" fill="url(#linear-gradient-5)"/>
            <path d="M18.64,16.89l3.82,5.49a5.48,5.48,0,0,0,3.85,2.17l7.18.9c1,.13,1.55,1.11.95,1.77l-5.09,5.61a4.08,4.08,0,0,0-1,3.42l1.07,6.61a1.32,1.32,0,0,1-1.83,1.31L19.43,41.6a6.35,6.35,0,0,0-3.81,0L7.5,44.17a1.32,1.32,0,0,1-1.83-1.31l1.07-6.61a4.08,4.08,0,0,0-1-3.42L.62,27.22c-.6-.66-.07-1.64.94-1.77l7.19-.9a5.5,5.5,0,0,0,3.85-2.17l3.81-5.49A1.45,1.45,0,0,1,18.64,16.89Z" fill="url(#linear-gradient-6)"/>
            <path d="M31.55,27l-.07-.85-.44.16a1.26,1.26,0,0,0-.45-.15l-5.88-.74a4.51,4.51,0,0,1-3.14-1.78l-3.13-4.55a1.18,1.18,0,0,0-1.83,0l-3.13,4.55a4.47,4.47,0,0,1-3.14,1.78l-5.87.74a1.31,1.31,0,0,0-.41.13l-.5-.08-.06.85h0a.75.75,0,0,0,.2.55l4.2,4.57A3.28,3.28,0,0,1,8.77,35l-.71,4.64H8l0,.6v.05a1,1,0,0,0,0,.25H8a1.12,1.12,0,0,0,1.49.79l6.55-2a5.22,5.22,0,0,1,3.08,0l6.54,2a1.12,1.12,0,0,0,1.49-.79h0a.7.7,0,0,0,0-.25v0l0-.67H27L26.28,35a3.32,3.32,0,0,1,.87-2.77l4.19-4.57a.74.74,0,0,0,.2-.61Z" fill="url(#linear-gradient-7)"/>
            <path d="M18.44,18.41l3.12,4.52a4.46,4.46,0,0,0,3.13,1.78l5.85.73c.83.11,1.25.91.76,1.44l-4.18,4.55a3.26,3.26,0,0,0-.87,2.74l.82,5.28a1.07,1.07,0,0,1-1.48,1l-6.53-2a5.18,5.18,0,0,0-3.07,0l-6.52,2a1.08,1.08,0,0,1-1.49-1l.82-5.28a3.26,3.26,0,0,0-.86-2.74L3.76,26.88c-.5-.53-.07-1.33.75-1.44l5.85-.73a4.51,4.51,0,0,0,3.14-1.78l3.11-4.52A1.19,1.19,0,0,1,18.44,18.41Z" fill="url(#linear-gradient-8)"/>
            <path d="M17.62,19.22c.55,0,.78.44,1,.8A36.6,36.6,0,0,1,21,24.39a1.32,1.32,0,0,1,.21,1c-.14.37-.58.55-1,.69a33.39,33.39,0,0,0-9.5,5.45,2,2,0,0,1-1.36-.63,46.84,46.84,0,0,1-3.85-3.87c-.91-1,1.17-1.22,1.84-1.3,1-.11,2-.25,3-.42a7.12,7.12,0,0,0,2.64-.65,6.43,6.43,0,0,0,2.19-2.45A10.31,10.31,0,0,1,17,19.5a1.16,1.16,0,0,1,.5-.27Z" fill="#fff" opacity="0.35"/>
            <path d="M26.06,38.45c0,.76-.4,1.21-1.22,1a12,12,0,0,0-1.26-.47c0-.79,1.26-2.24,2.12-1.63C26,37.48,26,38,26.06,38.45Z" fill="#fff" opacity="0.2"/>
          </g>
          <g>
            <path d="M104.69,26.48l-4.27,3.43v.25l-3.93-.51a5.58,5.58,0,0,1-3.93-2.26l-3.9-5.73a1.46,1.46,0,0,0-2.27,0l-3.9,5.73a5.58,5.58,0,0,1-3.93,2.26l-3.65.47-4.54-3.64L70,31.66h0a.94.94,0,0,0,.24.78l5.18,5.86a4.3,4.3,0,0,1,1.06,3.57l-.15.92-.68.07-.27,5.93a1.35,1.35,0,0,0,1.87,1.37l8.31-2.69a6.37,6.37,0,0,1,3.91,0l8.31,2.69a1.35,1.35,0,0,0,1.87-1.37l-.27-5.93-.66.1-.17-1.09a4.33,4.33,0,0,1,1.06-3.57l5.19-5.86a1,1,0,0,0,.23-.78h0Z" fill="url(#linear-gradient-9)"/>
            <path d="M88.65,16.89l3.82,5.49a5.48,5.48,0,0,0,3.85,2.17l7.18.9c1,.13,1.54,1.11,1,1.77l-5.09,5.61a4.08,4.08,0,0,0-1,3.42l1.07,6.61a1.33,1.33,0,0,1-1.84,1.31L89.44,41.6a6.35,6.35,0,0,0-3.81,0l-8.12,2.57a1.33,1.33,0,0,1-1.84-1.31l1.07-6.61a4.08,4.08,0,0,0-1-3.42l-5.09-5.61c-.59-.66-.06-1.64.95-1.77l7.19-.9a5.48,5.48,0,0,0,3.84-2.17l3.82-5.49A1.45,1.45,0,0,1,88.65,16.89Z" fill="url(#linear-gradient-10)"/>
            <path d="M101.56,27l-.07-.85-.44.16a1.31,1.31,0,0,0-.46-.15l-5.87-.74a4.49,4.49,0,0,1-3.14-1.78l-3.13-4.55a1.18,1.18,0,0,0-1.83,0l-3.13,4.55a4.49,4.49,0,0,1-3.14,1.78l-5.87.74a1.23,1.23,0,0,0-.41.13l-.5-.08-.06.85h0a.75.75,0,0,0,.2.55l4.2,4.57A3.34,3.34,0,0,1,78.78,35l-.72,4.64H78l0,.6v.05a1,1,0,0,0,0,.25h0a1.12,1.12,0,0,0,1.49.79l6.54-2a5.25,5.25,0,0,1,3.09,0l6.54,2a1.12,1.12,0,0,0,1.49-.79h0a1,1,0,0,0,0-.25v-.7H97L96.29,35a3.34,3.34,0,0,1,.86-2.77l4.2-4.57a.77.77,0,0,0,.2-.61Z" fill="url(#linear-gradient-11)"/>
            <path d="M88.45,18.41l3.12,4.52a4.46,4.46,0,0,0,3.13,1.78l5.85.73c.83.11,1.25.91.76,1.44l-4.19,4.55a3.29,3.29,0,0,0-.86,2.74l.82,5.28a1.07,1.07,0,0,1-1.48,1l-6.53-2a5.18,5.18,0,0,0-3.07,0l-6.52,2a1.08,1.08,0,0,1-1.49-1l.82-5.28A3.29,3.29,0,0,0,78,31.43l-4.18-4.55c-.5-.53-.08-1.33.75-1.44l5.85-.73a4.51,4.51,0,0,0,3.14-1.78l3.11-4.52A1.19,1.19,0,0,1,88.45,18.41Z" fill="url(#linear-gradient-12)"/>
            <path d="M87.62,19.22c.55,0,.79.44,1,.8A38.09,38.09,0,0,1,91,24.39a1.36,1.36,0,0,1,.2,1c-.14.37-.57.55-1,.69a33.39,33.39,0,0,0-9.5,5.45,2,2,0,0,1-1.36-.63,45.33,45.33,0,0,1-3.85-3.87c-.91-1,1.16-1.22,1.84-1.3,1-.11,2-.25,3-.42a7.17,7.17,0,0,0,2.65-.65,6.52,6.52,0,0,0,2.19-2.45A10.07,10.07,0,0,1,87,19.5a1.13,1.13,0,0,1,.49-.27Z" fill="#fff" opacity="0.2"/>
            <path d="M96.06,38.45c0,.76-.39,1.21-1.22,1a11.82,11.82,0,0,0-1.25-.47c0-.79,1.25-2.24,2.12-1.63C96,37.48,96,38,96.06,38.45Z" fill="#fff" opacity="0.2"/>
          </g>
        </g>
        <g>
          <polygon points="52.53 98.13 52.53 98.13 52.53 98.13 52.53 98.13" fill="#c8a87f"/>
          <polygon points="52.53 98.13 47.23 108.68 52.53 108.68 57.83 108.68 52.53 98.13" fill="#c8a87f"/>
        </g>
        <polygon points="21.01 96.33 14.28 87.63 23.81 80.79 40.64 91.19 37.22 94.83 21.01 96.33" fill="#c8a87f"/>
        <polygon points="84.05 96.33 90.78 87.63 81.26 80.79 64.43 91.19 67.85 94.83 80.3 95.98 81.19 97.13 82.39 96.17 84.05 96.33" fill="#c8a87f"/>
        <polygon points="16.85 104.88 15 115.14 30.34 113.81 34.01 103.39 16.85 104.88" fill="#c8a87f"/>
        <polygon points="52.53 136.55 52.53 124.99 77.4 121.42 78.69 132.8 52.53 136.55" fill="#c8a87f"/>
        <polygon points="14.28 87.63 23.81 80.79 40.64 91.19 38.25 93.73 23.58 85.03 16.14 90.03 14.28 87.63" fill="#b2926f"/>
        <polygon points="90.78 87.63 81.26 80.79 64.43 91.19 66.82 93.73 81.48 85.03 88.92 90.03 90.78 87.63" fill="#b2926f"/>
        <polygon points="49.8 108.68 52.53 103.96 55.47 108.68 57.83 108.68 52.53 98.13 47.23 108.68 49.8 108.68" fill="#b2926f"/>
        <polygon points="83.27 114.55 81.25 104.28 82.39 96.17 81.19 97.13 80.3 95.98 77.6 103.96 78.69 114.15 80.62 111.78 83.27 114.55" fill="#b2926f"/>
        <polygon points="67.89 71.61 70.01 50.55 72.03 53.68 74.44 51.36 72.6 70.65 75.24 82.37 67.89 71.61" fill="#b2926f"/>
        <polygon points="82.39 96.17 81.19 97.13 79.5 104.49 80.62 111.78 83.27 114.55 81.25 104.28 82.39 96.17" fill="#bf9d7c"/>
        <polygon points="74.44 51.36 72.03 53.68 70.37 71.36 75.24 82.37 72.6 70.65 74.44 51.36" fill="#bf9d7c"/>
        <path d="M78.69,132.81l-26.16,3.74-25-3.57c.17-.11.25-.27.43-.32.53-.13,1.08.09,1.72,0-.11-.62-.43-1.25.11-1.8.39-.39,1.07-.52,1.31,0,1.82-.37,1.14.75,2.52,1.63.69.43,2,.24,2.79.41.1-.74-.46-1.89.23-2.36s2.61.43,3.09.84c0-.77-.37-4.92.46-5.12A10.16,10.16,0,0,1,43,127.61c.59.74,0,1.44-.36,2.16,1.91-.12,2.51,2.46,4,2,.88-.3,1.18-1.5,1.73-1.9s.89-.31,1.66-.28,2.13-.18,2.37.47-.53.67,0,1.34a7,7,0,0,0,2.82,1.13c1.2.07,1.53-1.14,2.38-2-1-.28.22-1.39.7-1.66,1.07-.58,1.41-.06,2.41.68,2.09,1.52,6.5-.64,7.94,1.82,1.1-.57,3.24-.88,4-1.66.32-.32.54-1.23.88-1.66s.54-.56.8-.94c.64-.93.88-1.58,1.72-1.82Z" fill="#b2926f" opacity="0.5"/>
        <path d="M103.05,98.93l-13,16.21-5.71-.49a1.08,1.08,0,0,1,.37-.69,3.5,3.5,0,0,1,2.09.5c.12-.69.93-.51,1.48-.52.42-1-.52-1.8-.31-2.87a4.27,4.27,0,0,1,1.19-2.21c.78-.42,1,.35,1.76.39,2.09.11.91-2.56,1.14-3.66.33-1.69,2.64-4.15,4.34-4.45.31.79,1,.47,1.5.21.06.11.19.24.23.33.92-.69.61-2.28.66-3.32a8.65,8.65,0,0,1,2.1.19c-.63-1-1.66-2-1.17-3.2a2,2,0,0,1,.44-.6Z" fill="#b2926f" opacity="0.5"/>
        <path d="M30.87,110.88c-1,.06-.71.75-.91,1.45A2.93,2.93,0,0,1,28.7,114L15,115.14,2,98.93l.48-.69a4.38,4.38,0,0,1,1.07.81c.5.48.64,1,1.16,1.54s.72.4,1,1c.23.4.21.89.44,1.27a7.64,7.64,0,0,1,.63.44A15.49,15.49,0,0,1,8,105c.51.8,1,2.23,2,1.53.29-.19.07-.84.53-.92s.7.64.94.92a3.74,3.74,0,0,0,2.68,1.52c.88,0,1.14-.35,1.65.31a5.23,5.23,0,0,1,.4,1.88c.17,1.2.32,1.53,1.69,1.1-.17-1.21,2.09-2.54,3.13-2.42.88.09.3.25.8.73a3,3,0,0,0,2.4.86c1.94,0,5.18-2.47,6.21.19A2.62,2.62,0,0,1,30.87,110.88Z" fill="#b2926f" opacity="0.5"/>
      </g>
    </g>
  </g>
</svg>
