<svg xmlns="http://www.w3.org/2000/svg" xmlns:xlink="http://www.w3.org/1999/xlink" width="105.06" height="136.55" viewBox="0 0 105.06 136.55">
  <defs>
    <linearGradient id="linear-gradient" x1="52.52" y1="42.34" x2="52.52" y2="5.94" gradientUnits="userSpaceOnUse">
      <stop offset="0" stop-color="#9c9c9c"/>
      <stop offset="1" stop-color="#fff"/>
    </linearGradient>
    <linearGradient id="linear-gradient-2" x1="52.52" y1="34.84" x2="52.52" gradientUnits="userSpaceOnUse">
      <stop offset="0" stop-color="#e8e8e8"/>
      <stop offset="1" stop-color="#fff"/>
    </linearGradient>
    <linearGradient id="linear-gradient-3" x1="52.52" y1="31.28" x2="52.52" y2="2.9" gradientUnits="userSpaceOnUse">
      <stop offset="0" stop-color="#a7a7a7"/>
      <stop offset="1" stop-color="#fff"/>
    </linearGradient>
    <linearGradient id="linear-gradient-4" x1="52.52" y1="30.22" x2="52.52" y2="2.02" gradientUnits="userSpaceOnUse">
      <stop offset="0" stop-color="#c9c9c9"/>
      <stop offset="1" stop-color="#ebebeb"/>
    </linearGradient>
    <linearGradient id="linear-gradient-5" x1="87.53" y1="50.24" x2="87.53" y2="21.12" xlink:href="#linear-gradient"/>
    <linearGradient id="linear-gradient-6" x1="87.53" y1="44.24" x2="87.53" y2="16.37" xlink:href="#linear-gradient-2"/>
    <linearGradient id="linear-gradient-7" x1="87.53" y1="41.39" x2="87.53" y2="18.68" xlink:href="#linear-gradient-3"/>
    <linearGradient id="linear-gradient-8" x1="87.53" y1="40.54" x2="87.53" y2="17.98" xlink:href="#linear-gradient-4"/>
    <linearGradient id="linear-gradient-9" x1="17.53" y1="50.24" x2="17.53" y2="21.12" xlink:href="#linear-gradient"/>
    <linearGradient id="linear-gradient-10" x1="17.53" y1="44.24" x2="17.53" y2="16.37" xlink:href="#linear-gradient-2"/>
    <linearGradient id="linear-gradient-11" x1="17.53" y1="41.39" x2="17.53" y2="18.68" xlink:href="#linear-gradient-3"/>
    <linearGradient id="linear-gradient-12" x1="17.53" y1="40.54" x2="17.53" y2="17.98" xlink:href="#linear-gradient-4"/>
  </defs>
  <title>Element 1</title>
  <g id="Ebene_2">
    <g id="Layer_1">
      <g>
        <path d="M103,98.93l-13,16.21-5.71-.49-1.09-.1-2.65-2.77-1.93,2.37L72,113.58l4.06,11.72,2.61,7.51-26.16,3.74-25-3.57-1.19-.17L33,113.58,28.7,114,15,115.14,2,98.93l.48-.69,8-11.59,3.85-17.76s10.4-8.79,13.09-9.69l25.11-4.27L77.63,59.2c2.7.9,13.1,9.69,13.1,9.69l3.85,17.76,5.59,8.1Z" fill="#e8d1a8"/>
        <path d="M52.52,47.63,28.65,51.69c-2.56.87-12.45,9.22-12.45,9.22L12.54,77.79l-8,11.68,12.35,15.41L34,103.39l-6.34,18L52.52,125l24.87-3.57-6.34-18,17.16,1.49,12.34-15.41-8-11.68L88.85,60.91S79,52.56,76.4,51.69l-2-.33L72,53.68l-2-3.13Z" fill="#f4e2bc"/>
        <polygon points="75.23 59.84 85.61 61.32 75.92 53.76 75.23 53.66 75.23 59.84" fill="#f9f9df"/>
        <polygon points="69.09 52.73 52.52 50.24 29.3 53.76 18.81 62.57 14.99 77.9 8.3 86.31 13.34 86.31 23.57 77.15 37.26 84.77 29.15 70.59 31.55 64.74 52.52 56.61 67.54 58.75 69.09 52.73" fill="#f9f9df"/>
        <polygon points="103.04 98.93 100.55 89.47 88.21 104.88 90.06 115.14 103.04 98.93" fill="#c8a87f"/>
        <polygon points="4.49 89.47 2 98.93 14.99 115.14 16.84 104.88 4.49 89.47" fill="#e8d1a8"/>
        <polygon points="27.66 121.42 26.37 132.8 52.52 136.55 78.68 132.8 77.39 121.42 52.52 124.99 27.66 121.42" fill="#e8d1a8"/>
        <g>
          <g>
            <path d="M74,12.64l-5.34,4.28,0,.32-4.91-.63a7,7,0,0,1-4.92-2.83L53.94,6.62a1.82,1.82,0,0,0-2.84,0l-4.87,7.16a7,7,0,0,1-4.92,2.83l-4.55.58-5.68-4.55-.47,6.48h0a1.17,1.17,0,0,0,.29,1l6.49,7.33a5.37,5.37,0,0,1,1.32,4.46L38.55,33l-.85.08-.35,7.42a1.7,1.7,0,0,0,2.34,1.71l10.4-3.36a7.94,7.94,0,0,1,4.87,0l10.39,3.36a1.7,1.7,0,0,0,2.35-1.71l-.35-7.42-.81.13-.22-1.36a5.37,5.37,0,0,1,1.32-4.46l6.48-7.33a1.15,1.15,0,0,0,.3-1h0Z" fill="url(#linear-gradient)"/>
            <path d="M53.92.65l4.77,6.87a6.87,6.87,0,0,0,4.81,2.71l9,1.13c1.27.16,1.93,1.38,1.18,2.21l-6.35,7A5.08,5.08,0,0,0,66,24.85l1.34,8.26a1.65,1.65,0,0,1-2.29,1.64L54.91,31.54a7.92,7.92,0,0,0-4.77,0L40,34.75a1.65,1.65,0,0,1-2.29-1.64L39,24.85a5.07,5.07,0,0,0-1.29-4.27l-6.36-7c-.74-.83-.08-2.05,1.19-2.21l9-1.13a6.91,6.91,0,0,0,4.81-2.71L51.13.65A1.82,1.82,0,0,1,53.92.65Z" fill="url(#linear-gradient-2)"/>
            <path d="M70.05,13.33,70,12.26l-.56.21a1.61,1.61,0,0,0-.56-.19l-7.34-.93a5.57,5.57,0,0,1-3.93-2.23L53.67,3.44a1.48,1.48,0,0,0-2.29,0L47.47,9.12a5.57,5.57,0,0,1-3.93,2.23l-7.34.93a1.61,1.61,0,0,0-.51.16l-.63-.1L35,13.4h0a1,1,0,0,0,.26.69L40.5,19.8a4.17,4.17,0,0,1,1.08,3.46l-.9,5.8-.09,0,0,.74,0,.07a1.6,1.6,0,0,0,0,.31v0h0a1.4,1.4,0,0,0,1.87,1l8.18-2.56a6.48,6.48,0,0,1,3.85,0l8.18,2.56a1.4,1.4,0,0,0,1.87-1h0v0a.81.81,0,0,0,0-.31v0l0-.83h-.1l-.89-5.76a4.11,4.11,0,0,1,1.08-3.46l5.24-5.71a.94.94,0,0,0,.25-.76Z" fill="url(#linear-gradient-3)"/>
            <path d="M53.67,2.56l3.89,5.65a5.58,5.58,0,0,0,3.92,2.21l7.31.92c1,.13,1.56,1.13.95,1.8l-5.23,5.68a4.12,4.12,0,0,0-1.08,3.44l1,6.59a1.33,1.33,0,0,1-1.85,1.29L54.44,27.6a6.42,6.42,0,0,0-3.83,0l-8.16,2.54a1.34,1.34,0,0,1-1.86-1.29l1-6.59a4.12,4.12,0,0,0-1.08-3.44l-5.23-5.68c-.61-.67-.09-1.67.94-1.8l7.32-.92a5.58,5.58,0,0,0,3.92-2.21l3.89-5.65A1.48,1.48,0,0,1,53.67,2.56Z" fill="url(#linear-gradient-4)"/>
            <path d="M52.63,3.56c.69,0,1,.55,1.3,1a47.53,47.53,0,0,1,3,5.45,1.69,1.69,0,0,1,.26,1.31c-.18.46-.73.68-1.21.86A41.83,41.83,0,0,0,44.05,19a2.43,2.43,0,0,1-1.69-.78,59.46,59.46,0,0,1-4.82-4.84c-1.13-1.28,1.46-1.53,2.3-1.63,1.27-.14,2.53-.31,3.78-.52a9,9,0,0,0,3.31-.81,8.4,8.4,0,0,0,2.74-3.07c.68-1.14,1.18-2.55,2.22-3.43a1.35,1.35,0,0,1,.62-.34Z" fill="#fff" opacity="0.2"/>
            <path d="M63.18,27.6c.06.95-.49,1.51-1.52,1.2a15.72,15.72,0,0,0-1.57-.59c0-1,1.57-2.79,2.65-2C63.05,26.39,63.15,27,63.18,27.6Z" fill="#fff" opacity="0.2"/>
          </g>
          <g>
            <path d="M104.68,26.48l-4.27,3.43,0,.25-3.93-.51a5.6,5.6,0,0,1-3.94-2.26l-3.9-5.73a1.46,1.46,0,0,0-2.27,0l-3.9,5.73a5.58,5.58,0,0,1-3.93,2.26l-3.64.47-4.55-3.64L70,31.66h0a.94.94,0,0,0,.24.78l5.19,5.86a4.3,4.3,0,0,1,1,3.57l-.14.92-.69.07-.27,5.93a1.36,1.36,0,0,0,1.87,1.37l8.32-2.69a6.34,6.34,0,0,1,3.9,0l8.31,2.69a1.36,1.36,0,0,0,1.88-1.37l-.28-5.93-.65.1-.18-1.09a4.33,4.33,0,0,1,1.06-3.57l5.19-5.86a1,1,0,0,0,.24-.78h0Z" fill="url(#linear-gradient-5)"/>
            <path d="M88.64,16.89l3.82,5.49a5.48,5.48,0,0,0,3.85,2.17l7.18.9c1,.13,1.55,1.11,1,1.77l-5.09,5.61a4.08,4.08,0,0,0-1,3.42l1.07,6.61a1.32,1.32,0,0,1-1.83,1.31L89.43,41.6a6.35,6.35,0,0,0-3.81,0L77.5,44.17a1.32,1.32,0,0,1-1.83-1.31l1.07-6.61a4.08,4.08,0,0,0-1-3.42l-5.08-5.61c-.6-.66-.07-1.64.94-1.77l7.19-.9a5.5,5.5,0,0,0,3.85-2.17l3.81-5.49A1.45,1.45,0,0,1,88.64,16.89Z" fill="url(#linear-gradient-6)"/>
            <path d="M101.55,27l-.07-.85-.44.16a1.26,1.26,0,0,0-.45-.15l-5.88-.74a4.51,4.51,0,0,1-3.14-1.78l-3.13-4.55a1.18,1.18,0,0,0-1.83,0l-3.13,4.55a4.47,4.47,0,0,1-3.14,1.78l-5.87.74a1.31,1.31,0,0,0-.41.13l-.5-.08-.06.85h0a.75.75,0,0,0,.2.55l4.2,4.57A3.28,3.28,0,0,1,78.77,35l-.71,4.64H78l0,.6v.05a1,1,0,0,0,0,.25h0a1.12,1.12,0,0,0,1.49.79l6.55-2a5.22,5.22,0,0,1,3.08,0l6.54,2a1.12,1.12,0,0,0,1.49-.79h0a.7.7,0,0,0,0-.25v0l0-.67H97L96.28,35a3.32,3.32,0,0,1,.87-2.77l4.19-4.57a.74.74,0,0,0,.2-.61Z" fill="url(#linear-gradient-7)"/>
            <path d="M88.44,18.41l3.12,4.52a4.46,4.46,0,0,0,3.13,1.78l5.85.73c.83.11,1.25.91.76,1.44l-4.18,4.55a3.26,3.26,0,0,0-.87,2.74l.82,5.28a1.07,1.07,0,0,1-1.48,1l-6.53-2a5.18,5.18,0,0,0-3.07,0l-6.52,2a1.08,1.08,0,0,1-1.49-1l.82-5.28a3.26,3.26,0,0,0-.86-2.74l-4.18-4.55c-.5-.53-.07-1.33.75-1.44l5.85-.73a4.51,4.51,0,0,0,3.14-1.78l3.11-4.52A1.19,1.19,0,0,1,88.44,18.41Z" fill="url(#linear-gradient-8)"/>
            <path d="M87.62,19.22c.55,0,.78.44,1,.8A36.6,36.6,0,0,1,91,24.39a1.32,1.32,0,0,1,.21,1c-.14.37-.58.55-1,.69a33.39,33.39,0,0,0-9.5,5.45,2,2,0,0,1-1.36-.63,46.84,46.84,0,0,1-3.85-3.87c-.91-1,1.17-1.22,1.84-1.3,1-.11,2-.25,3-.42a7.12,7.12,0,0,0,2.64-.65,6.43,6.43,0,0,0,2.19-2.45A10.31,10.31,0,0,1,87,19.5a1.16,1.16,0,0,1,.5-.27Z" fill="#fff" opacity="0.2"/>
            <path d="M96.06,38.45c0,.76-.4,1.21-1.22,1a12,12,0,0,0-1.26-.47c0-.79,1.26-2.24,2.12-1.63C96,37.48,96,38,96.06,38.45Z" fill="#fff" opacity="0.2"/>
          </g>
          <g>
            <path d="M34.68,26.48l-4.27,3.43,0,.25-3.93-.51a5.6,5.6,0,0,1-3.94-2.26l-3.9-5.73a1.46,1.46,0,0,0-2.27,0l-3.9,5.73a5.58,5.58,0,0,1-3.93,2.26l-3.64.47L.37,26.48,0,31.66H0a.94.94,0,0,0,.24.78L5.44,38.3a4.3,4.3,0,0,1,1,3.57l-.14.92-.69.07-.27,5.93a1.36,1.36,0,0,0,1.87,1.37l8.32-2.69a6.34,6.34,0,0,1,3.9,0l8.31,2.69a1.36,1.36,0,0,0,1.88-1.37l-.28-5.93-.65.1-.18-1.09a4.33,4.33,0,0,1,1.06-3.57l5.19-5.86a1,1,0,0,0,.24-.78h0Z" fill="url(#linear-gradient-9)"/>
            <path d="M18.64,16.89l3.82,5.49a5.48,5.48,0,0,0,3.85,2.17l7.18.9c1,.13,1.55,1.11.95,1.77l-5.09,5.61a4.08,4.08,0,0,0-1,3.42l1.07,6.61a1.32,1.32,0,0,1-1.83,1.31L19.43,41.6a6.35,6.35,0,0,0-3.81,0L7.5,44.17a1.32,1.32,0,0,1-1.83-1.31l1.07-6.61a4.08,4.08,0,0,0-1-3.42L.62,27.22c-.6-.66-.07-1.64.94-1.77l7.19-.9a5.5,5.5,0,0,0,3.85-2.17l3.81-5.49A1.45,1.45,0,0,1,18.64,16.89Z" fill="url(#linear-gradient-10)"/>
            <path d="M31.55,27l-.07-.85-.44.16a1.26,1.26,0,0,0-.45-.15l-5.88-.74a4.51,4.51,0,0,1-3.14-1.78l-3.13-4.55a1.18,1.18,0,0,0-1.83,0l-3.13,4.55a4.47,4.47,0,0,1-3.14,1.78l-5.87.74a1.31,1.31,0,0,0-.41.13l-.5-.08-.06.85h0a.75.75,0,0,0,.2.55l4.2,4.57A3.28,3.28,0,0,1,8.77,35l-.71,4.64H8l0,.6v.05a1,1,0,0,0,0,.25H8a1.12,1.12,0,0,0,1.49.79l6.55-2a5.22,5.22,0,0,1,3.08,0l6.54,2a1.12,1.12,0,0,0,1.49-.79h0a.7.7,0,0,0,0-.25v0l0-.67H27L26.28,35a3.32,3.32,0,0,1,.87-2.77l4.19-4.57a.74.74,0,0,0,.2-.61Z" fill="url(#linear-gradient-11)"/>
            <path d="M18.44,18.41l3.12,4.52a4.46,4.46,0,0,0,3.13,1.78l5.85.73c.83.11,1.25.91.76,1.44l-4.18,4.55a3.26,3.26,0,0,0-.87,2.74l.82,5.28a1.07,1.07,0,0,1-1.48,1l-6.53-2a5.18,5.18,0,0,0-3.07,0l-6.52,2a1.08,1.08,0,0,1-1.49-1l.82-5.28a3.26,3.26,0,0,0-.86-2.74L3.76,26.88c-.5-.53-.07-1.33.75-1.44l5.85-.73a4.51,4.51,0,0,0,3.14-1.78l3.11-4.52A1.19,1.19,0,0,1,18.44,18.41Z" fill="url(#linear-gradient-12)"/>
            <path d="M17.62,19.22c.55,0,.78.44,1,.8A36.6,36.6,0,0,1,21,24.39a1.32,1.32,0,0,1,.21,1c-.14.37-.58.55-1,.69a33.39,33.39,0,0,0-9.5,5.45,2,2,0,0,1-1.36-.63,46.84,46.84,0,0,1-3.85-3.87c-.91-1,1.17-1.22,1.84-1.3,1-.11,2-.25,3-.42a7.12,7.12,0,0,0,2.64-.65,6.43,6.43,0,0,0,2.19-2.45A10.31,10.31,0,0,1,17,19.5a1.16,1.16,0,0,1,.5-.27Z" fill="#fff" opacity="0.2"/>
            <path d="M26.06,38.45c0,.76-.4,1.21-1.22,1a12,12,0,0,0-1.26-.47c0-.79,1.26-2.24,2.12-1.63C26,37.48,26,38,26.06,38.45Z" fill="#fff" opacity="0.2"/>
          </g>
        </g>
        <g>
          <polygon points="52.52 98.13 52.52 98.13 52.52 98.13 52.52 98.13" fill="#c8a87f"/>
          <polygon points="52.52 98.13 47.23 108.68 52.52 108.68 57.82 108.68 52.52 98.13" fill="#c8a87f"/>
        </g>
        <polygon points="21.01 96.33 14.27 87.63 23.8 80.79 40.63 91.19 37.21 94.83 21.01 96.33" fill="#c8a87f"/>
        <polygon points="84.04 96.33 90.77 87.63 81.25 80.79 64.42 91.19 67.84 94.83 80.29 95.98 81.18 97.13 82.38 96.17 84.04 96.33" fill="#c8a87f"/>
        <polygon points="16.84 104.88 14.99 115.14 30.34 113.81 34 103.39 16.84 104.88" fill="#c8a87f"/>
        <polygon points="52.52 136.55 52.52 124.99 77.39 121.42 78.68 132.8 52.52 136.55" fill="#c8a87f"/>
        <polygon points="14.27 87.63 23.8 80.79 40.63 91.19 38.24 93.73 23.57 85.03 16.13 90.03 14.27 87.63" fill="#b2926f"/>
        <polygon points="90.77 87.63 81.25 80.79 64.42 91.19 66.81 93.73 81.47 85.03 88.91 90.03 90.77 87.63" fill="#b2926f"/>
        <polygon points="49.79 108.68 52.52 103.96 55.46 108.68 57.82 108.68 52.52 98.13 47.23 108.68 49.79 108.68" fill="#b2926f"/>
        <polygon points="83.26 114.55 81.24 104.28 82.38 96.17 81.18 97.13 80.29 95.98 77.6 103.96 78.68 114.15 80.61 111.78 83.26 114.55" fill="#b2926f"/>
        <polygon points="67.89 71.61 70 50.55 72.02 53.68 74.43 51.36 72.59 70.65 75.23 82.37 67.89 71.61" fill="#b2926f"/>
        <polygon points="82.38 96.17 81.18 97.13 79.49 104.49 80.61 111.78 83.26 114.55 81.24 104.28 82.38 96.17" fill="#bf9d7c"/>
        <polygon points="74.43 51.36 72.02 53.68 70.37 71.36 75.23 82.37 72.59 70.65 74.43 51.36" fill="#bf9d7c"/>
        <path d="M78.68,132.81l-26.16,3.74-25-3.57c.17-.11.26-.27.43-.32.53-.13,1.08.09,1.72,0-.11-.62-.43-1.25.12-1.8.38-.39,1.06-.52,1.3,0,1.82-.37,1.14.75,2.52,1.63.69.43,2,.24,2.79.41.1-.74-.46-1.89.23-2.36s2.61.43,3.09.84c0-.77-.37-4.92.46-5.12A10.16,10.16,0,0,1,43,127.61c.59.74,0,1.44-.36,2.16,1.92-.12,2.52,2.46,4,2,.88-.3,1.18-1.5,1.73-1.9s.9-.31,1.66-.28,2.13-.18,2.38.47-.53.67,0,1.34a7,7,0,0,0,2.82,1.13c1.2.07,1.54-1.14,2.38-2-1.05-.28.23-1.39.7-1.66,1.07-.58,1.42-.06,2.42.68,2.08,1.52,6.49-.64,7.94,1.82,1.09-.57,3.23-.88,4-1.66.31-.32.53-1.23.88-1.66s.54-.56.79-.94c.64-.93.88-1.58,1.72-1.82Z" fill="#b2926f" opacity="0.5"/>
        <path d="M103,98.93l-13,16.21-5.71-.49a1.08,1.08,0,0,1,.37-.69,3.55,3.55,0,0,1,2.1.5c.11-.69.92-.51,1.47-.52.43-1-.52-1.8-.31-2.87a4.27,4.27,0,0,1,1.19-2.21c.79-.42,1,.35,1.76.39,2.1.11.92-2.56,1.14-3.66.33-1.69,2.64-4.15,4.35-4.45.3.79.94.47,1.49.21.06.11.19.24.23.33.92-.69.61-2.28.66-3.32a8.65,8.65,0,0,1,2.1.19c-.63-1-1.66-2-1.17-3.2a2,2,0,0,1,.44-.6Z" fill="#b2926f" opacity="0.5"/>
        <path d="M30.86,110.88c-1,.06-.71.75-.91,1.45A3,3,0,0,1,28.7,114L15,115.14,2,98.93l.48-.69a4.53,4.53,0,0,1,1.06.81c.5.48.64,1,1.16,1.54s.73.4,1,1c.23.4.22.89.45,1.27,0,0,.52.32.62.44A15.49,15.49,0,0,1,8,105c.51.8,1,2.23,2,1.53.29-.19.07-.84.53-.92s.7.64.94.92a3.74,3.74,0,0,0,2.69,1.52c.87,0,1.13-.35,1.64.31a5,5,0,0,1,.4,1.88c.17,1.2.32,1.53,1.7,1.1-.18-1.21,2.08-2.54,3.13-2.42.88.09.3.25.79.73a3.06,3.06,0,0,0,2.41.86c1.93,0,5.17-2.47,6.21.19A3,3,0,0,1,30.86,110.88Z" fill="#b2926f" opacity="0.5"/>
      </g>
    </g>
  </g>
</svg>
