<?xml version="1.0" encoding="UTF-8" standalone="no"?>
<svg
   xmlns:dc="http://purl.org/dc/elements/1.1/"
   xmlns:cc="http://creativecommons.org/ns#"
   xmlns:rdf="http://www.w3.org/1999/02/22-rdf-syntax-ns#"
   xmlns:svg="http://www.w3.org/2000/svg"
   xmlns="http://www.w3.org/2000/svg"
   xmlns:sodipodi="http://sodipodi.sourceforge.net/DTD/sodipodi-0.dtd"
   xmlns:inkscape="http://www.inkscape.org/namespaces/inkscape"
   inkscape:version="1.0 (4035a4fb49, 2020-05-01)"
   sodipodi:docname="icons8-menü.svg"
   id="svg26"
   version="1.1"
   viewBox="0 0 212 156"
   height="156pt"
   width="212pt">
  <metadata
     id="metadata30">
    <rdf:RDF>
      <cc:Work
         rdf:about="">
        <dc:format>image/svg+xml</dc:format>
        <dc:type
           rdf:resource="http://purl.org/dc/dcmitype/StillImage" />
        <dc:title></dc:title>
      </cc:Work>
    </rdf:RDF>
  </metadata>
  <sodipodi:namedview
     inkscape:current-layer="svg26"
     inkscape:window-maximized="1"
     inkscape:window-y="-8"
     inkscape:window-x="-8"
     inkscape:cy="188.44697"
     inkscape:cx="155.49441"
     inkscape:zoom="1.8782524"
     showgrid="false"
     id="namedview28"
     inkscape:window-height="1017"
     inkscape:window-width="1920"
     inkscape:pageshadow="2"
     inkscape:pageopacity="0"
     guidetolerance="10"
     gridtolerance="10"
     objecttolerance="10"
     borderopacity="1"
     bordercolor="#666666"
     pagecolor="#ffffff" />
  <defs
     id="defs17">
    <linearGradient
       gradientTransform="scale(1.395349)"
       y2="82.026077"
       x2="125.02608"
       y1="0.23649999"
       x1="43.2365"
       gradientUnits="userSpaceOnUse"
       id="linear0">
      <stop
         id="stop2"
         style="stop-color:rgb(100%,0%,7.45098%);stop-opacity:1;"
         offset="0.237" />
      <stop
         id="stop4"
         style="stop-color:rgb(100%,75.686275%,36.862745%);stop-opacity:1;"
         offset="0.85" />
    </linearGradient>
    <linearGradient
       gradientTransform="scale(1.395349)"
       y2="125.02608"
       x2="125.02608"
       y1="43.2365"
       x1="43.2365"
       gradientUnits="userSpaceOnUse"
       id="linear1">
      <stop
         id="stop7"
         style="stop-color:rgb(100%,0%,7.45098%);stop-opacity:1;"
         offset="0.237" />
      <stop
         id="stop9"
         style="stop-color:rgb(100%,75.686275%,36.862745%);stop-opacity:1;"
         offset="0.85" />
    </linearGradient>
    <linearGradient
       gradientTransform="scale(1.395349)"
       y2="168.02608"
       x2="125.02608"
       y1="86.236504"
       x1="43.2365"
       gradientUnits="userSpaceOnUse"
       id="linear2">
      <stop
         id="stop12"
         style="stop-color:rgb(100%,0%,7.45098%);stop-opacity:1;"
         offset="0.237" />
      <stop
         id="stop14"
         style="stop-color:rgb(100%,75.686275%,36.862745%);stop-opacity:1;"
         offset="0.85" />
    </linearGradient>
  </defs>
  <g
     transform="translate(-14.201385,-43.003463)"
     id="surface1105924">
    <path
       id="path19"
       d="M 215,75 H 25 C 19.5,75 15,70.5 15,65 V 55 c 0,-5.5 4.5,-10 10,-10 h 190 c 5.5,0 10,4.5 10,10 v 10 c 0,5.5 -4.5,10 -10,10 z m 0,0"
       style="fill:url(#linear0);fill-rule:nonzero;stroke:none" />
    <path
       id="path21"
       d="M 215,135 H 25 c -5.5,0 -10,-4.5 -10,-10 v -10 c 0,-5.5 4.5,-10 10,-10 h 190 c 5.5,0 10,4.5 10,10 v 10 c 0,5.5 -4.5,10 -10,10 z m 0,0"
       style="fill:url(#linear1);fill-rule:nonzero;stroke:none" />
    <path
       id="path23"
       d="M 215,195 H 25 c -5.5,0 -10,-4.5 -10,-10 v -10 c 0,-5.5 4.5,-10 10,-10 h 190 c 5.5,0 10,4.5 10,10 v 10 c 0,5.5 -4.5,10 -10,10 z m 0,0"
       style="fill:url(#linear2);fill-rule:nonzero;stroke:none" />
  </g>
</svg>
