<?xml version="1.0" encoding="UTF-8" standalone="no"?>
<!-- Created with Inkscape (http://www.inkscape.org/) -->

<svg
   xmlns:dc="http://purl.org/dc/elements/1.1/"
   xmlns:cc="http://creativecommons.org/ns#"
   xmlns:rdf="http://www.w3.org/1999/02/22-rdf-syntax-ns#"
   xmlns:svg="http://www.w3.org/2000/svg"
   xmlns="http://www.w3.org/2000/svg"
   xmlns:sodipodi="http://sodipodi.sourceforge.net/DTD/sodipodi-0.dtd"
   xmlns:inkscape="http://www.inkscape.org/namespaces/inkscape"
   width="10mm"
   height="10mm"
   viewBox="0 0 10 10"
   version="1.1"
   id="svg8"
   inkscape:version="0.92.4 (5da689c313, 2019-01-14)"
   sodipodi:docname="cell-See.svg">
  <defs
     id="defs2" />
  <sodipodi:namedview
     id="base"
     pagecolor="#ffffff"
     bordercolor="#666666"
     borderopacity="1.0"
     inkscape:pageopacity="0.0"
     inkscape:pageshadow="2"
     inkscape:zoom="11.2"
     inkscape:cx="-5.8555491"
     inkscape:cy="19.282686"
     inkscape:document-units="mm"
     inkscape:current-layer="layer1"
     showgrid="false"
     inkscape:window-width="1920"
     inkscape:window-height="1024"
     inkscape:window-x="0"
     inkscape:window-y="0"
     inkscape:window-maximized="1" />
  <metadata
     id="metadata5">
    <rdf:RDF>
      <cc:Work
         rdf:about="">
        <dc:format>image/svg+xml</dc:format>
        <dc:type
           rdf:resource="http://purl.org/dc/dcmitype/StillImage" />
        <dc:title />
      </cc:Work>
    </rdf:RDF>
  </metadata>
  <g
     inkscape:label="Ebene 1"
     inkscape:groupmode="layer"
     id="layer1"
     transform="translate(0,-287)">
    <rect
       style="opacity:1;fill:#0000ff;stroke:none;stroke-width:5.29166603;stroke-linecap:round;stroke-linejoin:bevel;stroke-miterlimit:4;stroke-dasharray:none;stroke-dashoffset:0"
       id="rect815"
       width="10"
       height="10"
       x="0"
       y="287" />
    <path
       style="fill:none;stroke:#00ffff;stroke-width:0.26458332px;stroke-linecap:butt;stroke-linejoin:miter;stroke-opacity:1"
       d="m 1.5119048,289.25148 c 0.9449404,-1.13392 1.6063987,-0.7087 2.1497395,-0.11811 0.5433407,0.59058 1.3937872,1.03943 2.1969865,0.21261 0.8031996,-0.82683 1.1811757,-0.77958 1.9135045,-0.0473 0.7323288,0.73233 1.2284226,0.49609 1.6536458,-0.0472"
       id="path816"
       inkscape:connector-curvature="0" />
    <path
       style="fill:none;stroke:#00ffff;stroke-width:0.26458332px;stroke-linecap:butt;stroke-linejoin:miter;stroke-opacity:1"
       d="m -1.8793429,290.89303 c 0.94494035,-1.13392 1.6063987,-0.7087 2.1497395,-0.11811 0.5433408,0.59058 1.3937873,1.03943 2.1969864,0.21261 0.8031999,-0.82683 1.181176,-0.77958 1.9135047,-0.0473 0.7323286,0.73233 1.2284227,0.49609 1.6536456,-0.0472"
       id="path816-3"
       inkscape:connector-curvature="0" />
    <path
       style="fill:none;stroke:#00ffff;stroke-width:0.26458332px;stroke-linecap:butt;stroke-linejoin:miter;stroke-opacity:1"
       d="m 3.9792879,292.92466 c 0.9449405,-1.13392 1.6063988,-0.7087 2.1497396,-0.11811 0.5433408,0.59058 1.3937874,1.03943 2.1969864,0.21261 0.8031999,-0.82683 1.181176,-0.77958 1.9135051,-0.0473 0.732328,0.73233 1.228423,0.49609 1.653646,-0.0472"
       id="path816-6"
       inkscape:connector-curvature="0" />
    <path
       style="fill:none;stroke:#00ffff;stroke-width:0.26458332px;stroke-linecap:butt;stroke-linejoin:miter;stroke-opacity:1"
       d="m 0.17590255,294.57829 c 0.94494045,-1.13392 1.60639875,-0.7087 2.14973955,-0.11811 0.5433408,0.59058 1.3937874,1.03943 2.1969864,0.21261 0.8031999,-0.82683 1.181176,-0.77958 1.9135048,-0.0473 0.7323285,0.73233 1.2284226,0.49609 1.6536456,-0.0472"
       id="path816-7"
       inkscape:connector-curvature="0" />
  </g>
</svg>
