<?xml version="1.0" encoding="UTF-8" standalone="no"?>
<svg
   xmlns:dc="http://purl.org/dc/elements/1.1/"
   xmlns:cc="http://creativecommons.org/ns#"
   xmlns:rdf="http://www.w3.org/1999/02/22-rdf-syntax-ns#"
   xmlns:svg="http://www.w3.org/2000/svg"
   xmlns="http://www.w3.org/2000/svg"
   xmlns:xlink="http://www.w3.org/1999/xlink"
   xmlns:sodipodi="http://sodipodi.sourceforge.net/DTD/sodipodi-0.dtd"
   xmlns:inkscape="http://www.inkscape.org/namespaces/inkscape"
   sodipodi:docname="levelend_three_stars_new.svg"
   inkscape:version="1.0 (4035a4fb49, 2020-05-01)"
   id="svg8"
   version="1.1"
   viewBox="0 0 28 19"
   height="19mm"
   width="28mm">
  <defs
     id="defs2">
    <linearGradient
       id="linear-gradient"
       x1="52.360001"
       y1="42.200001"
       x2="52.360001"
       y2="5.9200001"
       gradientUnits="userSpaceOnUse">
      <stop
         offset="0"
         stop-color="#f16026"
         id="stop833" />
      <stop
         offset="1"
         stop-color="#f19e26"
         id="stop835" />
    </linearGradient>
    <linearGradient
       id="linear-gradient-2"
       x1="52.360001"
       y1="34.73"
       x2="52.360001"
       gradientUnits="userSpaceOnUse">
      <stop
         offset="0"
         stop-color="#fff07c"
         id="stop838" />
      <stop
         offset="1"
         stop-color="#ffffe0"
         id="stop840" />
    </linearGradient>
    <linearGradient
       id="linear-gradient-3"
       x1="52.360001"
       y1="31.18"
       x2="52.360001"
       y2="2.8900001"
       gradientUnits="userSpaceOnUse">
      <stop
         offset="0"
         stop-color="#cf5b1d"
         id="stop843" />
      <stop
         offset="1"
         stop-color="#f19e26"
         id="stop845" />
    </linearGradient>
    <linearGradient
       id="linear-gradient-4"
       x1="52.360001"
       y1="30.120001"
       x2="52.360001"
       y2="2.01"
       gradientUnits="userSpaceOnUse">
      <stop
         offset="0"
         stop-color="#fca606"
         id="stop848" />
      <stop
         offset="1"
         stop-color="#fcde06"
         id="stop850" />
    </linearGradient>
    <linearGradient
       id="linear-gradient-5"
       x1="17.469999"
       y1="50.080002"
       x2="17.469999"
       y2="21.049999"
       xlink:href="#linear-gradient" />
    <linearGradient
       id="linear-gradient-6"
       x1="17.469999"
       y1="44.099998"
       x2="17.469999"
       y2="16.309999"
       xlink:href="#linear-gradient-2" />
    <linearGradient
       id="linear-gradient-7"
       x1="17.469999"
       y1="41.259998"
       x2="17.469999"
       y2="18.620001"
       xlink:href="#linear-gradient-3" />
    <linearGradient
       id="linear-gradient-8"
       x1="17.469999"
       y1="40.41"
       x2="17.469999"
       y2="17.93"
       xlink:href="#linear-gradient-4" />
    <linearGradient
       id="linear-gradient-9"
       x1="87.25"
       y1="50.080002"
       x2="87.25"
       y2="21.049999"
       gradientUnits="userSpaceOnUse">
      <stop
         offset="0"
         stop-color="#9c9c9c"
         id="stop857" />
      <stop
         offset="1"
         stop-color="#fff"
         id="stop859" />
    </linearGradient>
    <linearGradient
       id="linear-gradient-10"
       x1="87.25"
       y1="44.099998"
       x2="87.25"
       y2="16.309999"
       gradientUnits="userSpaceOnUse">
      <stop
         offset="0"
         stop-color="#e8e8e8"
         id="stop862" />
      <stop
         offset="1"
         stop-color="#fff"
         id="stop864" />
    </linearGradient>
    <linearGradient
       id="linear-gradient-11"
       x1="87.25"
       y1="41.259998"
       x2="87.25"
       y2="18.620001"
       gradientUnits="userSpaceOnUse">
      <stop
         offset="0"
         stop-color="#a7a7a7"
         id="stop867" />
      <stop
         offset="1"
         stop-color="#fff"
         id="stop869" />
    </linearGradient>
    <linearGradient
       id="linear-gradient-12"
       x1="87.25"
       y1="40.41"
       x2="87.25"
       y2="17.93"
       gradientUnits="userSpaceOnUse">
      <stop
         offset="0"
         stop-color="#c9c9c9"
         id="stop872" />
      <stop
         offset="1"
         stop-color="#ebebeb"
         id="stop874" />
    </linearGradient>
    <clipPath
       id="clipPath1169"
       clipPathUnits="userSpaceOnUse">
      <path
         id="path1171"
         d="M 4.5212497,62.005442 27.7,49.999999 l 24.66,-2.52 21.840001,3.71 L 117.6276,55.139563 116.54351,2.7420531 38.850653,-5.2079141 -12.824133,24.423782 Z"
         style="fill:none;stroke:#000000;stroke-width:0.264583px;stroke-linecap:butt;stroke-linejoin:miter;stroke-opacity:1" />
    </clipPath>
    <linearGradient
       gradientUnits="userSpaceOnUse"
       y2="16.309999"
       x2="87.25"
       y1="44.099998"
       x1="87.25"
       id="linear-gradient-10-8"
       gradientTransform="matrix(0.26458333,0,0,0.26458333,10.898801,0.46578811)">
      <stop
         id="stop862-5"
         stop-color="#e8e8e8"
         offset="0" />
      <stop
         id="stop864-1"
         stop-color="#fff"
         offset="1" />
    </linearGradient>
    <linearGradient
       gradientUnits="userSpaceOnUse"
       y2="17.93"
       x2="87.25"
       y1="40.41"
       x1="87.25"
       id="linear-gradient-12-6"
       gradientTransform="matrix(0.26458333,0,0,0.26458333,11.867809,0.05307639)">
      <stop
         id="stop872-4"
         stop-color="#c9c9c9"
         offset="0" />
      <stop
         id="stop874-1"
         stop-color="#ebebeb"
         offset="1" />
    </linearGradient>
    <linearGradient
       gradientUnits="userSpaceOnUse"
       y2="16.309999"
       x2="87.25"
       y1="44.099998"
       x1="87.25"
       id="linear-gradient-10-0"
       gradientTransform="matrix(0.26458333,0,0,0.26458333,11.867809,0.05307639)">
      <stop
         id="stop862-2"
         stop-color="#e8e8e8"
         offset="0" />
      <stop
         id="stop864-10"
         stop-color="#fff"
         offset="1" />
    </linearGradient>
    <linearGradient
       gradientUnits="userSpaceOnUse"
       y2="21.049999"
       x2="87.25"
       y1="50.080002"
       x1="87.25"
       id="linear-gradient-9-0"
       gradientTransform="matrix(0.26458333,0,0,0.26458333,11.867809,0.05307639)">
      <stop
         id="stop857-1"
         stop-color="#9c9c9c"
         offset="0" />
      <stop
         id="stop859-6"
         stop-color="#fff"
         offset="1" />
    </linearGradient>
    <filter
       style="color-interpolation-filters:sRGB"
       id="filter5425">
      <feGaussianBlur
         stdDeviation="6"
         in="SourceGraphic"
         result="result0"
         id="feGaussianBlur5427" />
      <feDiffuseLighting
         lighting-color="#fac6c6"
         diffuseConstant="1"
         surfaceScale="4"
         result="result5"
         id="feDiffuseLighting5429">
        <feDistantLight
           elevation="45"
           azimuth="235"
           id="feDistantLight5431" />
      </feDiffuseLighting>
      <feComposite
         k1="1.4"
         in2="SourceGraphic"
         in="result5"
         result="fbSourceGraphic"
         operator="arithmetic"
         id="feComposite5433"
         k2="0"
         k3="0"
         k4="0" />
      <feGaussianBlur
         result="result0"
         in="fbSourceGraphic"
         stdDeviation="6"
         id="feGaussianBlur5435" />
      <feSpecularLighting
         specularExponent="25"
         specularConstant="1"
         surfaceScale="4"
         lighting-color="#f8c9c9"
         result="result1"
         in="result0"
         id="feSpecularLighting5437">
        <feDistantLight
           azimuth="235"
           elevation="45"
           id="feDistantLight5439" />
      </feSpecularLighting>
      <feComposite
         k3="1"
         k2="1"
         operator="arithmetic"
         in="fbSourceGraphic"
         in2="result1"
         result="result4"
         id="feComposite5441"
         k1="0"
         k4="0" />
      <feComposite
         operator="in"
         result="result2"
         in2="SourceGraphic"
         in="result4"
         id="feComposite5443" />
    </filter>
    <filter
       style="color-interpolation-filters:sRGB"
       id="filter5445">
      <feGaussianBlur
         stdDeviation="6"
         in="SourceGraphic"
         result="result0"
         id="feGaussianBlur5447" />
      <feDiffuseLighting
         lighting-color="#f1bdbd"
         diffuseConstant="1"
         surfaceScale="4"
         result="result5"
         id="feDiffuseLighting5449">
        <feDistantLight
           elevation="45"
           azimuth="235"
           id="feDistantLight5451" />
      </feDiffuseLighting>
      <feComposite
         k1="1.4"
         in2="SourceGraphic"
         in="result5"
         result="fbSourceGraphic"
         operator="arithmetic"
         id="feComposite5453"
         k2="0"
         k3="0"
         k4="0" />
      <feGaussianBlur
         result="result0"
         in="fbSourceGraphic"
         stdDeviation="6"
         id="feGaussianBlur5455" />
      <feSpecularLighting
         specularExponent="25"
         specularConstant="1"
         surfaceScale="4"
         lighting-color="#ffb6b6"
         result="result1"
         in="result0"
         id="feSpecularLighting5457">
        <feDistantLight
           azimuth="235"
           elevation="45"
           id="feDistantLight5459" />
      </feSpecularLighting>
      <feComposite
         k3="1"
         k2="1"
         operator="arithmetic"
         in="fbSourceGraphic"
         in2="result1"
         result="result4"
         id="feComposite5461"
         k1="0"
         k4="0" />
      <feComposite
         operator="in"
         result="result2"
         in2="SourceGraphic"
         in="result4"
         id="feComposite5463" />
    </filter>
    <filter
       style="color-interpolation-filters:sRGB"
       id="filter5465"
       x="-0.050000001"
       y="-0.050000001"
       width="1.1"
       height="1.1">
      <feGaussianBlur
         stdDeviation="6"
         in="SourceGraphic"
         result="result0"
         id="feGaussianBlur5467" />
      <feDiffuseLighting
         lighting-color="#fbc0c0"
         diffuseConstant="1"
         surfaceScale="4"
         result="result5"
         id="feDiffuseLighting5469">
        <feDistantLight
           elevation="45"
           azimuth="235"
           id="feDistantLight5471" />
      </feDiffuseLighting>
      <feComposite
         k1="1.4"
         in2="SourceGraphic"
         in="result5"
         result="fbSourceGraphic"
         operator="arithmetic"
         id="feComposite5473"
         k2="0"
         k3="0"
         k4="0" />
      <feGaussianBlur
         result="result0"
         in="fbSourceGraphic"
         stdDeviation="6"
         id="feGaussianBlur5475" />
      <feSpecularLighting
         specularExponent="25"
         specularConstant="1"
         surfaceScale="4"
         lighting-color="#f6cece"
         result="result1"
         in="result0"
         id="feSpecularLighting5477">
        <feDistantLight
           azimuth="235"
           elevation="45"
           id="feDistantLight5479" />
      </feSpecularLighting>
      <feComposite
         k3="1"
         k2="1"
         operator="arithmetic"
         in="fbSourceGraphic"
         in2="result1"
         result="result4"
         id="feComposite5481"
         k1="0"
         k4="0" />
      <feComposite
         operator="in"
         result="result2"
         in2="SourceGraphic"
         in="result4"
         id="feComposite5483" />
    </filter>
    <filter
       style="color-interpolation-filters:sRGB"
       id="filter5560"
       y="-0.050000001"
       x="-0.050000001"
       width="1.1"
       height="1.1">
      <feGaussianBlur
         stdDeviation="6"
         in="SourceGraphic"
         result="result0"
         id="feGaussianBlur5562" />
      <feDiffuseLighting
         lighting-color="#ffffff"
         diffuseConstant="1"
         surfaceScale="4"
         result="result5"
         id="feDiffuseLighting5564">
        <feDistantLight
           elevation="45"
           azimuth="235"
           id="feDistantLight5566" />
      </feDiffuseLighting>
      <feComposite
         k1="1.4"
         in2="SourceGraphic"
         in="result5"
         result="fbSourceGraphic"
         operator="arithmetic"
         id="feComposite5568"
         k2="0"
         k3="0"
         k4="0" />
      <feGaussianBlur
         result="result0"
         in="fbSourceGraphic"
         stdDeviation="6"
         id="feGaussianBlur5570" />
      <feSpecularLighting
         specularExponent="25"
         specularConstant="1"
         surfaceScale="4"
         lighting-color="#ffffff"
         result="result1"
         in="result0"
         id="feSpecularLighting5572">
        <feDistantLight
           azimuth="235"
           elevation="45"
           id="feDistantLight5574" />
      </feSpecularLighting>
      <feComposite
         k3="1"
         k2="1"
         operator="arithmetic"
         in="fbSourceGraphic"
         in2="result1"
         result="result4"
         id="feComposite5576"
         k1="0"
         k4="0" />
      <feComposite
         operator="in"
         result="result2"
         in2="SourceGraphic"
         in="result4"
         id="feComposite5578" />
    </filter>
    <linearGradient
       id="linear-gradient-2-5"
       x1="52.360001"
       y1="34.73"
       x2="52.360001"
       gradientUnits="userSpaceOnUse">
      <stop
         offset="0"
         stop-color="#fff07c"
         id="stop838-7" />
      <stop
         offset="1"
         stop-color="#ffffe0"
         id="stop840-5" />
    </linearGradient>
    <clipPath
       id="clipPath1169-1"
       clipPathUnits="userSpaceOnUse">
      <path
         id="path1171-8"
         d="M 4.5212497,62.005442 27.7,49.999999 l 24.66,-2.52 21.840001,3.71 L 117.6276,55.139563 116.54351,2.7420531 38.850653,-5.2079141 -12.824133,24.423782 Z"
         style="fill:none;stroke:#000000;stroke-width:0.264583px;stroke-linecap:butt;stroke-linejoin:miter;stroke-opacity:1" />
    </clipPath>
    <linearGradient
       id="linear-gradient-52"
       x1="51.96"
       y1="41.87"
       x2="51.96"
       y2="5.88"
       gradientUnits="userSpaceOnUse">
      <stop
         offset="0"
         stop-color="#f16026"
         id="stop1173" />
      <stop
         offset="1"
         stop-color="#f19e26"
         id="stop1175" />
    </linearGradient>
    <linearGradient
       id="linear-gradient-2-2"
       x1="51.96"
       y1="34.46"
       x2="51.96"
       gradientUnits="userSpaceOnUse">
      <stop
         offset="0"
         stop-color="#fff07c"
         id="stop1178" />
      <stop
         offset="1"
         stop-color="#ffffe0"
         id="stop1180" />
    </linearGradient>
    <linearGradient
       id="linear-gradient-3-0"
       x1="51.96"
       y1="30.93"
       x2="51.96"
       y2="2.86"
       gradientUnits="userSpaceOnUse">
      <stop
         offset="0"
         stop-color="#cf5b1d"
         id="stop1183" />
      <stop
         offset="1"
         stop-color="#f19e26"
         id="stop1185" />
    </linearGradient>
    <linearGradient
       id="linear-gradient-4-3"
       x1="51.96"
       y1="29.89"
       x2="51.96"
       y2="2"
       gradientUnits="userSpaceOnUse">
      <stop
         offset="0"
         stop-color="#fca606"
         id="stop1188" />
      <stop
         offset="1"
         stop-color="#fcde06"
         id="stop1190" />
    </linearGradient>
    <linearGradient
       id="linear-gradient-5-8"
       x1="17.34"
       y1="49.69"
       x2="17.34"
       y2="20.89"
       xlink:href="#linear-gradient-52" />
    <linearGradient
       id="linear-gradient-6-4"
       x1="17.34"
       y1="43.76"
       x2="17.34"
       y2="16.19"
       xlink:href="#linear-gradient-2-2" />
    <linearGradient
       id="linear-gradient-7-5"
       x1="17.34"
       y1="40.93"
       x2="17.34"
       y2="18.48"
       xlink:href="#linear-gradient-3-0" />
    <linearGradient
       id="linear-gradient-8-5"
       x1="17.34"
       y1="40.1"
       x2="17.34"
       y2="17.79"
       xlink:href="#linear-gradient-4-3" />
    <linearGradient
       id="linear-gradient-9-8"
       x1="86.58"
       y1="49.69"
       x2="86.58"
       y2="20.89"
       xlink:href="#linear-gradient-52" />
    <linearGradient
       id="linear-gradient-10-6"
       x1="86.58"
       y1="43.76"
       x2="86.58"
       y2="16.19"
       xlink:href="#linear-gradient-2-2" />
    <linearGradient
       id="linear-gradient-11-2"
       x1="86.58"
       y1="40.93"
       x2="86.58"
       y2="18.48"
       xlink:href="#linear-gradient-3-0" />
    <linearGradient
       id="linear-gradient-12-8"
       x1="86.58"
       y1="40.1"
       x2="86.58"
       y2="17.79"
       xlink:href="#linear-gradient-4-3" />
    <clipPath
       id="clipPath1483"
       clipPathUnits="userSpaceOnUse">
      <path
         id="path1485"
         d="M -5.9584547,70.66146 28.39,51.109998 51.999998,47.109999 89.441147,52.593353 112.56833,51.147903 107.50926,13.20488 49.691315,-8.4768484 -6.681179,14.650329 Z"
         style="fill:none;stroke:#000000;stroke-width:0.264583px;stroke-linecap:butt;stroke-linejoin:miter;stroke-opacity:1" />
    </clipPath>
    <linearGradient
       id="linear-gradient-46"
       x1="52.52"
       y1="42.34"
       x2="52.52"
       y2="5.94"
       gradientUnits="userSpaceOnUse">
      <stop
         offset="0"
         stop-color="#9c9c9c"
         id="stop1487" />
      <stop
         offset="1"
         stop-color="#fff"
         id="stop1489" />
    </linearGradient>
    <linearGradient
       id="linear-gradient-2-3"
       x1="52.52"
       y1="34.84"
       x2="52.52"
       gradientUnits="userSpaceOnUse">
      <stop
         offset="0"
         stop-color="#e8e8e8"
         id="stop1492" />
      <stop
         offset="1"
         stop-color="#fff"
         id="stop1494" />
    </linearGradient>
    <linearGradient
       id="linear-gradient-3-9"
       x1="52.52"
       y1="31.28"
       x2="52.52"
       y2="2.9"
       gradientUnits="userSpaceOnUse">
      <stop
         offset="0"
         stop-color="#a7a7a7"
         id="stop1497" />
      <stop
         offset="1"
         stop-color="#fff"
         id="stop1499" />
    </linearGradient>
    <linearGradient
       id="linear-gradient-4-6"
       x1="52.52"
       y1="30.22"
       x2="52.52"
       y2="2.02"
       gradientUnits="userSpaceOnUse">
      <stop
         offset="0"
         stop-color="#c9c9c9"
         id="stop1502" />
      <stop
         offset="1"
         stop-color="#ebebeb"
         id="stop1504" />
    </linearGradient>
    <linearGradient
       id="linear-gradient-5-89"
       x1="87.53"
       y1="50.24"
       x2="87.53"
       y2="21.12"
       xlink:href="#linear-gradient-46" />
    <linearGradient
       id="linear-gradient-6-6"
       x1="87.53"
       y1="44.24"
       x2="87.53"
       y2="16.37"
       xlink:href="#linear-gradient-2-3" />
    <linearGradient
       id="linear-gradient-7-8"
       x1="87.53"
       y1="41.39"
       x2="87.53"
       y2="18.68"
       xlink:href="#linear-gradient-3-9" />
    <linearGradient
       id="linear-gradient-8-1"
       x1="87.53"
       y1="40.54"
       x2="87.53"
       y2="17.98"
       xlink:href="#linear-gradient-4-6" />
    <linearGradient
       id="linear-gradient-9-2"
       x1="17.53"
       y1="50.24"
       x2="17.53"
       y2="21.12"
       xlink:href="#linear-gradient-46" />
    <linearGradient
       id="linear-gradient-10-4"
       x1="17.53"
       y1="44.24"
       x2="17.53"
       y2="16.37"
       xlink:href="#linear-gradient-2-3" />
    <linearGradient
       id="linear-gradient-11-1"
       x1="17.53"
       y1="41.39"
       x2="17.53"
       y2="18.68"
       xlink:href="#linear-gradient-3-9" />
    <linearGradient
       id="linear-gradient-12-9"
       x1="17.53"
       y1="40.54"
       x2="17.53"
       y2="17.98"
       xlink:href="#linear-gradient-4-6" />
    <clipPath
       id="clipPath1797"
       clipPathUnits="userSpaceOnUse">
      <path
         id="path1799"
         d="M -4.1515193,63.071386 27.739999,50.159999 52.520001,47.629998 111.48436,56.205508 111.123,2.0011873 13.193863,-4.5033313 -9.9333136,28.380622 Z"
         style="fill:none;stroke:#000000;stroke-width:0.264583px;stroke-linecap:butt;stroke-linejoin:miter;stroke-opacity:1" />
    </clipPath>
    <linearGradient
       id="linear-gradient-2-56"
       x1="52.360001"
       y1="34.73"
       x2="52.360001"
       gradientUnits="userSpaceOnUse">
      <stop
         offset="0"
         stop-color="#fff07c"
         id="stop838-9" />
      <stop
         offset="1"
         stop-color="#ffffe0"
         id="stop840-3" />
    </linearGradient>
    <clipPath
       id="clipPath1169-2"
       clipPathUnits="userSpaceOnUse">
      <path
         id="path1171-86"
         d="M 4.5212497,62.005442 27.7,49.999999 l 24.66,-2.52 21.840001,3.71 L 117.6276,55.139563 116.54351,2.7420531 38.850653,-5.2079141 -12.824133,24.423782 Z"
         style="fill:none;stroke:#000000;stroke-width:0.264583px;stroke-linecap:butt;stroke-linejoin:miter;stroke-opacity:1" />
    </clipPath>
    <linearGradient
       id="linear-gradient-2-2-0"
       x1="51.96"
       y1="34.46"
       x2="51.96"
       gradientUnits="userSpaceOnUse">
      <stop
         offset="0"
         stop-color="#fff07c"
         id="stop1178-7" />
      <stop
         offset="1"
         stop-color="#ffffe0"
         id="stop1180-8" />
    </linearGradient>
    <linearGradient
       id="linear-gradient-5-8-6"
       x1="17.34"
       y1="49.69"
       x2="17.34"
       y2="20.89"
       xlink:href="#linear-gradient-52" />
    <linearGradient
       id="linear-gradient-6-4-1"
       x1="17.34"
       y1="43.76"
       x2="17.34"
       y2="16.19"
       xlink:href="#linear-gradient-2-2-0" />
    <linearGradient
       id="linear-gradient-7-5-2"
       x1="17.34"
       y1="40.93"
       x2="17.34"
       y2="18.48"
       xlink:href="#linear-gradient-3-0" />
    <linearGradient
       id="linear-gradient-8-5-4"
       x1="17.34"
       y1="40.1"
       x2="17.34"
       y2="17.79"
       xlink:href="#linear-gradient-4-3" />
    <linearGradient
       id="linear-gradient-9-8-9"
       x1="86.58"
       y1="49.69"
       x2="86.58"
       y2="20.89"
       xlink:href="#linear-gradient-52" />
    <linearGradient
       id="linear-gradient-10-6-9"
       x1="86.58"
       y1="43.76"
       x2="86.58"
       y2="16.19"
       xlink:href="#linear-gradient-2-2-0" />
    <linearGradient
       id="linear-gradient-11-2-6"
       x1="86.58"
       y1="40.93"
       x2="86.58"
       y2="18.48"
       xlink:href="#linear-gradient-3-0" />
    <linearGradient
       id="linear-gradient-12-8-1"
       x1="86.58"
       y1="40.1"
       x2="86.58"
       y2="17.79"
       xlink:href="#linear-gradient-4-3" />
    <linearGradient
       inkscape:collect="always"
       xlink:href="#linear-gradient-52"
       id="linearGradient1307"
       gradientUnits="userSpaceOnUse"
       x1="51.96"
       y1="41.87"
       x2="51.96"
       y2="5.88" />
    <linearGradient
       inkscape:collect="always"
       xlink:href="#linear-gradient-2-2-0"
       id="linearGradient1309"
       gradientUnits="userSpaceOnUse"
       x1="51.96"
       y1="34.46"
       x2="51.96" />
    <linearGradient
       inkscape:collect="always"
       xlink:href="#linear-gradient-3-0"
       id="linearGradient1311"
       gradientUnits="userSpaceOnUse"
       x1="51.96"
       y1="30.93"
       x2="51.96"
       y2="2.86" />
    <linearGradient
       inkscape:collect="always"
       xlink:href="#linear-gradient-4-3"
       id="linearGradient1313"
       gradientUnits="userSpaceOnUse"
       x1="51.96"
       y1="29.89"
       x2="51.96"
       y2="2" />
    <clipPath
       id="clipPath1483-6"
       clipPathUnits="userSpaceOnUse">
      <path
         id="path1485-4"
         d="M -5.9584547,70.66146 28.39,51.109998 51.999998,47.109999 89.441147,52.593353 112.56833,51.147903 107.50926,13.20488 49.691315,-8.4768484 -6.681179,14.650329 Z"
         style="fill:none;stroke:#000000;stroke-width:0.264583px;stroke-linecap:butt;stroke-linejoin:miter;stroke-opacity:1" />
    </clipPath>
    <clipPath
       id="clipPath1559"
       clipPathUnits="userSpaceOnUse">
      <path
         id="path1561"
         d="M 6.9429416,53.414068 33.667532,49.331146 61.134467,45.619397 85.260829,53.785244 101.59252,53.414057 110.12954,24.462426 49.628042,-4.4892116 -7.1616986,23.348898 Z"
         style="fill:none;stroke:#000000;stroke-width:0.264583px;stroke-linecap:butt;stroke-linejoin:miter;stroke-opacity:1" />
    </clipPath>
  </defs>
  <sodipodi:namedview
     inkscape:window-maximized="1"
     inkscape:window-y="-8"
     inkscape:window-x="1912"
     inkscape:window-height="1017"
     inkscape:window-width="1920"
     showgrid="false"
     inkscape:document-rotation="0"
     inkscape:current-layer="layer2"
     inkscape:document-units="mm"
     inkscape:cy="96.354082"
     inkscape:cx="-21.23959"
     inkscape:zoom="2.6941484"
     inkscape:pageshadow="2"
     inkscape:pageopacity="0.0"
     borderopacity="1.0"
     bordercolor="#666666"
     pagecolor="#ffffff"
     id="base"
     inkscape:snap-global="false" />
  <metadata
     id="metadata5">
    <rdf:RDF>
      <cc:Work
         rdf:about="">
        <dc:format>image/svg+xml</dc:format>
        <dc:type
           rdf:resource="http://purl.org/dc/dcmitype/StillImage" />
        <dc:title></dc:title>
      </cc:Work>
    </rdf:RDF>
  </metadata>
  <g
     id="layer1"
     inkscape:groupmode="layer"
     inkscape:label="Ebene 1" />
  <g
     inkscape:groupmode="layer"
     id="layer3"
     inkscape:label="Ebene 3" />
  <g
     inkscape:groupmode="layer"
     id="layer2"
     inkscape:label="Ebene 2"
     style="opacity:1">
    <g
       id="g1130"
       transform="translate(-2.3718916,2.2762816)">
      <path
         id="path2997-5-0"
         style="opacity:1;fill:#ff0013;fill-opacity:1;stroke-width:0.0174567"
         inkscape:connector-curvature="0"
         d="m 21.76389,-1.971033 c -3.192545,-1.0069553 -6.640434,0.5588741 -7.702184,3.4980983 -0.08754,0.2423601 -0.156144,0.487233 -0.206508,0.7317588 C 13.579652,2.0891006 13.276578,1.9479623 12.94871,1.8445601 10.925019,1.2063487 8.7389312,2.1991697 8.0660332,4.0621 7.8719392,4.5994381 7.8260726,5.1499676 7.9059935,5.6774157 5.5505492,5.7725856 3.4256858,7.1248478 2.6595698,9.2455743 c -1.0094212,2.7944617 0.7222944,5.8638967 3.868549,6.8561797 2.4162324,0.762006 4.9643482,0.07762 6.4737082,-1.54667 0.699072,0.841843 1.660603,1.513449 2.823811,1.890952 2.412256,0.782923 4.986002,0.07799 6.551479,-1.592641 0.311132,0.196679 0.654862,0.35837 1.028633,0.47627 2.203552,0.694954 4.585237,-0.38675 5.317995,-2.415218 0.457974,-1.267821 0.162743,-2.605974 -0.660162,-3.6008875 0.09697,-0.1694826 0.181992,-0.3484708 0.249902,-0.5364653 0.672947,-1.8629741 -0.422043,-3.8904655 -2.445723,-4.528711 -5.13e-4,-1.921e-4 -10e-4,-3.01e-4 -0.0012,-4.97e-4 0.441777,-2.6572085 -1.242415,-5.3171052 -4.102734,-6.2189674 z" />
      <path
         d="M 21.214734,-0.2776437 C 18.66742,-1.0810879 15.916369,0.16827874 15.069204,2.5134699 14.999359,2.7068478 14.944617,2.9022306 14.904433,3.0973362 14.684576,2.9619149 14.442755,2.8493015 14.181151,2.7667975 12.566457,2.2575719 10.822191,3.0497385 10.285289,4.5361605 10.130421,4.9648996 10.093826,5.404164 10.157599,5.8250118 8.2782011,5.9009482 6.5827859,6.9799106 5.9715059,8.6720261 5.1660937,10.901713 6.5478206,13.350797 9.0582005,14.142535 c 1.9278995,0.608 3.9610255,0.06193 5.1653355,-1.234079 0.557787,0.6717 1.324986,1.207572 2.253105,1.50878 1.924726,0.62469 3.978304,0.06223 5.22739,-1.270761 0.248249,0.15693 0.522511,0.285942 0.820739,0.380015 1.758202,0.5545 3.658538,-0.308587 4.243199,-1.92709 0.365416,-1.011589 0.129852,-2.0792913 -0.526739,-2.873129 0.07737,-0.1352291 0.145208,-0.2780422 0.199396,-0.4280423 0.536942,-1.4864569 -0.336744,-3.1041813 -1.951429,-3.6134339 -4.09e-4,-1.534e-4 -8.06e-4,-2.329e-4 -9.4e-4,-3.882e-4 0.352491,-2.1201806 -0.991316,-4.24249783 -3.273548,-4.96208901 z"
         inkscape:connector-curvature="0"
         style="opacity:0.756677;fill:#6f0000;fill-opacity:1;stroke-width:0.0139286"
         id="path2997-5-0-4" />
    </g>
    <g
       id="g1297"
       transform="matrix(0.26458333,0,0,0.26458333,0.00284544,2.9998976)"
       clip-path="url(#clipPath1559)">
      <path
         id="path1205"
         fill="#e8d1a8"
         d="m 101.92,97.85 -12.84,16 -5.64,-0.49 -1.09,-0.09 -2.61,-2.75 -1.91,2.35 -6.6,-0.57 4,11.59 2.58,7.43 -25.81,3.74 -24.69,-3.54 -1.18,-0.17 6.61,-19 -4.3,0.37 L 14.89,113.9 2,97.85 2.48,97.16 10.36,85.7 14.17,68.13 c 0,0 10.29,-8.69 13,-9.58 L 52,54.32 76.84,58.55 c 2.67,0.89 13,9.58 13,9.58 l 3.8,17.57 5.53,8 z" />
      <path
         id="path1207"
         fill="#f4e2bc"
         d="m 52,47.11 -23.61,4 C 25.81,52 16,60.24 16,60.24 l -3.62,16.7 -8,11.55 12.21,15.24 17,-1.47 -6.27,17.83 24.68,3.53 24.59,-3.53 -6.27,-17.83 17,1.47 12.14,-15.24 -8,-11.55 -3.62,-16.7 c 0,0 -9.74,-8.24 -12.28,-9.12 l -1.94,-0.33 -2.38,2.3 -2,-3.1 z" />
      <polygon
         id="polygon1209"
         fill="#f9f9df"
         points="74.41,59.19 84.68,60.65 75.09,53.17 74.41,53.07 " />
      <polygon
         id="polygon1211"
         fill="#f9f9df"
         points="23.32,76.3 36.86,83.84 28.84,69.81 31.21,64.03 51.96,55.99 66.81,58.1 68.34,52.15 51.95,49.69 28.98,53.17 18.61,61.88 14.83,77.04 8.22,85.36 13.21,85.36 " />
      <polygon
         id="polygon1213"
         fill="#c8a87f"
         points="101.92,97.85 99.46,88.49 87.25,103.73 89.08,113.88 " />
      <polygon
         id="polygon1215"
         fill="#e8d1a8"
         points="4.45,88.49 1.99,97.85 14.83,113.88 16.66,103.73 " />
      <polygon
         id="polygon1217"
         fill="#e8d1a8"
         points="51.96,135.06 77.83,131.35 76.55,120.09 51.96,123.61 27.36,120.09 26.08,131.35 " />
      <g
         id="g1261">
        <g
           id="g1231">
          <path
             style="fill:url(#linearGradient1307)"
             id="path1219"
             fill="url(#linear-gradient)"
             d="m 73.16,12.5 -5.28,4.24 v 0.31 L 63,16.42 A 6.94,6.94 0 0 1 58.14,13.63 L 53.36,6.55 a 1.8,1.8 0 0 0 -2.81,0 l -4.82,7.08 a 6.94,6.94 0 0 1 -4.86,2.79 L 36.36,17 30.75,12.5 30.29,18.91 v 0 a 1.14,1.14 0 0 0 0.29,1 L 37,27.12 a 5.29,5.29 0 0 1 1.3,4.41 l -0.18,1.13 -0.84,0.09 -0.28,7.33 a 1.68,1.68 0 0 0 2.32,1.7 l 10.27,-3.33 a 8,8 0 0 1 4.83,0 l 10.27,3.33 A 1.68,1.68 0 0 0 67,40.08 l -0.34,-7.33 -0.81,0.13 -0.21,-1.35 a 5.32,5.32 0 0 1 1.3,-4.41 l 6.42,-7.25 a 1.14,1.14 0 0 0 0.29,-1 v 0 z" />
          <path
             style="fill:url(#linearGradient1309)"
             id="path1221"
             fill="url(#linear-gradient-2)"
             d="m 53.33,0.65 4.72,6.79 a 6.86,6.86 0 0 0 4.76,2.68 l 8.88,1.11 c 1.26,0.16 1.91,1.37 1.17,2.19 l -6.28,6.93 a 5,5 0 0 0 -1.28,4.23 l 1.32,8.17 a 1.64,1.64 0 0 1 -2.27,1.62 l -10,-3.18 a 7.88,7.88 0 0 0 -4.71,0 l -10,3.18 a 1.64,1.64 0 0 1 -2.27,-1.62 l 1.32,-8.17 a 5,5 0 0 0 -1.28,-4.23 l -6.28,-6.93 c -0.74,-0.82 -0.08,-2 1.17,-2.19 l 8.88,-1.11 a 6.86,6.86 0 0 0 4.76,-2.68 l 4.64,-6.79 a 1.78,1.78 0 0 1 2.75,0 z" />
          <path
             style="fill:url(#linearGradient1311)"
             id="path1223"
             fill="url(#linear-gradient-3)"
             d="m 69.29,13.18 -0.08,-1 -0.55,0.2 A 1.61,1.61 0 0 0 68.1,12.19 L 60.84,11.28 A 5.55,5.55 0 0 1 57,9 L 53.09,3.4 a 1.48,1.48 0 0 0 -2.27,0 L 47,9 a 5.55,5.55 0 0 1 -3.89,2.21 l -7.26,0.91 a 1.7,1.7 0 0 0 -0.51,0.17 l -0.61,-0.1 -0.07,1 v 0 a 0.9,0.9 0 0 0 0.25,0.67 l 5.18,5.66 A 4.07,4.07 0 0 1 41.13,23 l -0.89,5.73 h -0.09 v 0.74 0.07 a 0.76,0.76 0 0 0 0,0.3 v 0 0 a 1.38,1.38 0 0 0 1.84,1 l 8.09,-2.54 a 6.51,6.51 0 0 1 3.81,0 L 62,30.86 a 1.4,1.4 0 0 0 1.85,-1 v 0 0 a 0.76,0.76 0 0 0 0,-0.3 v -0.05 -0.82 h -0.1 L 62.78,23 a 4.07,4.07 0 0 1 1.07,-3.42 L 69,13.93 a 0.91,0.91 0 0 0 0.25,-0.75 z" />
          <path
             style="fill:url(#linearGradient1313)"
             id="path1225"
             fill="url(#linear-gradient-4)"
             d="m 53.09,2.53 3.85,5.59 a 5.54,5.54 0 0 0 3.87,2.19 l 7.24,0.91 c 1,0.13 1.54,1.12 0.93,1.78 l -5.17,5.62 A 4,4 0 0 0 62.74,22 l 1,6.52 a 1.32,1.32 0 0 1 -1.83,1.28 l -8.07,-2.52 a 6.44,6.44 0 0 0 -3.79,0 L 42,29.81 a 1.32,1.32 0 0 1 -1.83,-1.28 l 1,-6.52 A 4,4 0 0 0 40.1,18.62 L 34.93,13 c -0.61,-0.66 -0.09,-1.65 0.93,-1.78 L 43.1,10.31 A 5.54,5.54 0 0 0 47,8.12 l 3.86,-5.59 a 1.47,1.47 0 0 1 2.23,0 z" />
          <path
             id="path1227"
             opacity="0.35"
             fill="#ffffff"
             d="m 52.06,3.52 c 0.69,0 1,0.55 1.29,1 a 48,48 0 0 1 2.91,5.39 1.65,1.65 0 0 1 0.26,1.29 c -0.18,0.46 -0.72,0.68 -1.2,0.86 A 41.46,41.46 0 0 0 43.58,18.79 2.44,2.44 0 0 1 41.9,18 59.86,59.86 0 0 1 37.13,13.21 C 36,12 38.58,11.72 39.41,11.63 c 1.26,-0.14 2.5,-0.32 3.74,-0.52 a 9,9 0 0 0 3.27,-0.8 8.14,8.14 0 0 0 2.71,-3 12.56,12.56 0 0 1 2.2,-3.4 1.46,1.46 0 0 1 0.61,-0.33 z" />
          <path
             id="path1229"
             opacity="0.2"
             fill="#ffffff"
             d="m 62.5,27.3 c 0.06,0.94 -0.49,1.49 -1.51,1.19 A 15.39,15.39 0 0 0 59.44,27.9 c 0,-1 1.55,-2.76 2.62,-2 0.31,0.2 0.4,0.83 0.44,1.4 z" />
        </g>
        <g
           id="g1245">
          <path
             style="fill:url(#linear-gradient-5-8-6)"
             id="path1233"
             fill="url(#linear-gradient-5)"
             d="m 34.3,26.19 -4.22,3.39 v 0.25 l -3.88,-0.5 a 5.51,5.51 0 0 1 -3.89,-2.24 l -3.86,-5.66 a 1.44,1.44 0 0 0 -2.25,0 l -3.86,5.66 A 5.51,5.51 0 0 1 8.46,29.33 L 4.85,29.79 0.37,26.19 0,31.31 v 0 a 0.94,0.94 0 0 0 0.23,0.77 l 5.14,5.8 a 4.27,4.27 0 0 1 1,3.53 l -0.14,0.91 -0.68,0.07 -0.27,5.86 a 1.35,1.35 0 0 0 1.85,1.36 L 15.41,47 a 6.33,6.33 0 0 1 3.85,0 l 8.23,2.66 a 1.35,1.35 0 0 0 1.85,-1.36 l -0.27,-5.86 -0.65,0.1 -0.17,-1.08 a 4.27,4.27 0 0 1 1,-3.53 l 5.14,-5.8 a 0.94,0.94 0 0 0 0.23,-0.77 v 0 z" />
          <path
             style="fill:url(#linear-gradient-6-4-1)"
             id="path1235"
             fill="url(#linear-gradient-6)"
             d="m 18.44,16.7 3.77,5.44 A 5.47,5.47 0 0 0 26,24.28 l 7.1,0.89 c 1,0.13 1.53,1.1 0.94,1.75 l -5,5.55 a 4,4 0 0 0 -1,3.38 l 1.06,6.54 a 1.31,1.31 0 0 1 -1.82,1.29 l -8,-2.54 a 6.38,6.38 0 0 0 -3.77,0 l -8,2.54 A 1.31,1.31 0 0 1 5.6,42.39 l 1.06,-6.54 a 4,4 0 0 0 -1,-3.38 l -5,-5.55 C 0.07,26.27 0.59,25.3 1.6,25.17 l 7.1,-0.89 a 5.47,5.47 0 0 0 3.81,-2.14 l 3.77,-5.44 a 1.45,1.45 0 0 1 2.16,0 z" />
          <path
             style="fill:url(#linear-gradient-7-5-2)"
             id="path1237"
             fill="url(#linear-gradient-7)"
             d="M 31.21,26.73 31.14,25.89 30.7,26.06 A 1.27,1.27 0 0 0 30.25,25.9 l -5.81,-0.73 a 4.46,4.46 0 0 1 -3.11,-1.76 l -3.09,-4.5 a 1.17,1.17 0 0 0 -1.81,0 l -3.09,4.5 a 4.46,4.46 0 0 1 -3.11,1.76 L 4.42,25.9 A 1.4,1.4 0 0 0 4,26 H 3.52 l -0.06,0.84 v 0 a 0.8,0.8 0 0 0 0.2,0.55 l 4.15,4.52 a 3.27,3.27 0 0 1 0.86,2.73 L 8,39.18 H 7.92 v 0.59 0.05 a 0.71,0.71 0 0 0 0,0.25 v 0 a 1.11,1.11 0 0 0 1.48,0.77 l 6.47,-2 a 5.12,5.12 0 0 1 3,0 l 6.47,2 a 1.11,1.11 0 0 0 1.48,-0.77 v 0 0 a 1,1 0 0 0 0,-0.24 v 0 -0.65 H 26.7 L 26,34.59 a 3.27,3.27 0 0 1 0.86,-2.73 L 31,27.34 a 0.73,0.73 0 0 0 0.19,-0.61 z" />
          <path
             style="fill:url(#linear-gradient-8-5-4)"
             id="path1239"
             fill="url(#linear-gradient-8)"
             d="m 18.24,18.21 3.08,4.47 a 4.44,4.44 0 0 0 3.1,1.76 l 5.79,0.72 c 0.82,0.11 1.23,0.9 0.74,1.43 l -4.13,4.49 A 3.21,3.21 0 0 0 26,33.8 l 0.8,5.21 a 1.05,1.05 0 0 1 -1.46,1 l -6.46,-2 a 5.21,5.21 0 0 0 -3,0 L 9.36,40 A 1.05,1.05 0 0 1 7.9,39 L 8.7,33.79 A 3.21,3.21 0 0 0 7.85,31.07 L 3.72,26.59 C 3.23,26.06 3.65,25.27 4.46,25.16 l 5.79,-0.72 a 4.44,4.44 0 0 0 3.1,-1.76 l 3.08,-4.47 a 1.17,1.17 0 0 1 1.81,0 z" />
          <path
             id="path1241"
             opacity="0.35"
             fill="#ffffff"
             d="m 17.42,19 c 0.55,0 0.78,0.43 1,0.79 a 38,38 0 0 1 2.33,4.32 1.33,1.33 0 0 1 0.2,1 C 20.81,25.48 20.38,25.65 20,25.8 A 32.79,32.79 0 0 0 10.6,31.18 1.93,1.93 0 0 1 9.26,30.56 47.34,47.34 0 0 1 5.45,26.74 c -0.9,-1 1.15,-1.22 1.82,-1.29 1,-0.11 2,-0.25 3,-0.42 a 7.06,7.06 0 0 0 2.62,-0.64 6.53,6.53 0 0 0 2.19,-2.39 9.82,9.82 0 0 1 1.75,-2.72 1.25,1.25 0 0 1 0.49,-0.27 z" />
          <path
             id="path1243"
             opacity="0.2"
             fill="#ffffff"
             d="m 25.77,38 c 0.05,0.75 -0.39,1.19 -1.21,0.95 a 10.9,10.9 0 0 0 -1.24,-0.47 c 0,-0.78 1.24,-2.21 2.1,-1.61 0.24,0.2 0.32,0.7 0.35,1.13 z" />
        </g>
        <g
           id="g1259">
          <path
             style="fill:url(#linear-gradient-9-8-9)"
             id="path1247"
             fill="url(#linear-gradient-9)"
             d="m 103.54,26.19 -4.22,3.39 v 0.25 l -3.88,-0.5 A 5.51,5.51 0 0 1 91.55,27.09 L 87.7,21.43 a 1.44,1.44 0 0 0 -2.25,0 l -3.86,5.66 a 5.51,5.51 0 0 1 -3.89,2.24 l -3.6,0.46 -4.49,-3.6 -0.37,5.12 v 0 a 0.94,0.94 0 0 0 0.23,0.77 l 5.14,5.8 a 4.27,4.27 0 0 1 1,3.53 l -0.14,0.91 -0.68,0.07 -0.27,5.86 a 1.35,1.35 0 0 0 1.85,1.36 L 84.65,47 a 6.33,6.33 0 0 1 3.85,0 l 8.23,2.66 a 1.35,1.35 0 0 0 1.85,-1.36 l -0.27,-5.86 -0.65,0.1 -0.17,-1.08 a 4.27,4.27 0 0 1 1,-3.53 l 5.14,-5.8 a 0.94,0.94 0 0 0 0.23,-0.77 v 0 z" />
          <path
             style="fill:url(#linear-gradient-10-6-9)"
             id="path1249"
             fill="url(#linear-gradient-10)"
             d="m 87.68,16.7 3.77,5.44 a 5.47,5.47 0 0 0 3.81,2.14 l 7.1,0.89 c 1,0.13 1.53,1.1 0.94,1.75 l -5,5.55 a 4,4 0 0 0 -1,3.38 l 1.06,6.54 a 1.31,1.31 0 0 1 -1.82,1.29 l -8,-2.54 a 6.38,6.38 0 0 0 -3.77,0 l -8,2.54 a 1.31,1.31 0 0 1 -1.82,-1.29 l 1.06,-6.54 a 4,4 0 0 0 -1,-3.38 l -5,-5.55 c -0.59,-0.65 -0.07,-1.62 0.94,-1.75 l 7.1,-0.89 a 5.47,5.47 0 0 0 3.81,-2.14 l 3.77,-5.44 a 1.45,1.45 0 0 1 2.05,0 z" />
          <path
             style="fill:url(#linear-gradient-11-2-6)"
             id="path1251"
             fill="url(#linear-gradient-11)"
             d="m 100.45,26.73 -0.07,-0.84 -0.44,0.17 A 1.27,1.27 0 0 0 99.49,25.9 l -5.81,-0.73 a 4.46,4.46 0 0 1 -3.11,-1.76 l -3.09,-4.5 a 1.17,1.17 0 0 0 -1.81,0 l -3.09,4.5 a 4.46,4.46 0 0 1 -3.11,1.76 l -5.81,0.73 a 1.4,1.4 0 0 0 -0.41,0.13 L 72.76,26 72.7,26.84 v 0 a 0.8,0.8 0 0 0 0.2,0.55 l 4.15,4.52 a 3.27,3.27 0 0 1 0.86,2.73 l -0.71,4.59 h -0.08 v 0.59 0.05 a 1,1 0 0 0 0,0.25 v 0 a 1.11,1.11 0 0 0 1.48,0.77 l 6.47,-2 a 5.12,5.12 0 0 1 3,0 l 6.47,2 a 1.11,1.11 0 0 0 1.48,-0.77 v 0 0 a 1,1 0 0 0 0,-0.24 v 0 -0.65 h -0.08 l -0.71,-4.56 a 3.27,3.27 0 0 1 0.86,-2.73 l 4.15,-4.52 a 0.76,0.76 0 0 0 0.19,-0.61 z" />
          <path
             style="fill:url(#linear-gradient-12-8-1)"
             id="path1253"
             fill="url(#linear-gradient-12)"
             d="m 87.48,18.21 3.08,4.47 a 4.44,4.44 0 0 0 3.1,1.76 l 5.79,0.72 c 0.82,0.11 1.23,0.9 0.74,1.43 l -4.13,4.49 A 3.21,3.21 0 0 0 95.21,33.8 L 96,39 a 1.05,1.05 0 0 1 -1.46,1 l -6.46,-2 a 5.21,5.21 0 0 0 -3,0 l -6.48,2 a 1.05,1.05 0 0 1 -1.46,-1 l 0.8,-5.21 A 3.21,3.21 0 0 0 77.09,31.07 L 73,26.59 c -0.49,-0.53 -0.07,-1.32 0.74,-1.43 l 5.79,-0.72 a 4.44,4.44 0 0 0 3.1,-1.76 l 3.08,-4.47 a 1.17,1.17 0 0 1 1.77,0 z" />
          <path
             id="path1255"
             opacity="0.35"
             fill="#ffffff"
             d="m 86.66,19 c 0.55,0 0.78,0.43 1,0.79 a 38,38 0 0 1 2.34,4.33 1.33,1.33 0 0 1 0.2,1 c -0.14,0.37 -0.57,0.54 -1,0.69 a 32.79,32.79 0 0 0 -9.4,5.38 1.93,1.93 0 0 1 -1.34,-0.62 47.34,47.34 0 0 1 -3.81,-3.82 c -0.9,-1 1.15,-1.22 1.82,-1.29 1,-0.11 2,-0.25 3,-0.42 a 7.06,7.06 0 0 0 2.62,-0.64 6.71,6.71 0 0 0 2.23,-2.4 9.82,9.82 0 0 1 1.75,-2.72 1.25,1.25 0 0 1 0.49,-0.27 z" />
          <path
             id="path1257"
             opacity="0.2"
             fill="#ffffff"
             d="m 95,38 c 0,0.75 -0.39,1.19 -1.21,0.95 a 10.9,10.9 0 0 0 -1.24,-0.47 c 0,-0.78 1.24,-2.21 2.1,-1.61 0.25,0.2 0.35,0.7 0.35,1.13 z" />
        </g>
      </g>
      <g
         id="g1267">
        <polygon
           id="polygon1263"
           fill="#c8a87f"
           points="51.96,97.05 51.95,97.05 " />
        <polygon
           id="polygon1265"
           fill="#c8a87f"
           points="51.95,97.05 46.71,107.49 51.95,107.49 57.2,107.49 " />
      </g>
      <polygon
         id="polygon1269"
         fill="#c8a87f"
         points="20.78,95.27 14.13,86.67 23.55,79.9 40.19,90.19 36.81,93.79 " />
      <polygon
         id="polygon1271"
         fill="#c8a87f"
         points="67.1,93.79 79.42,94.93 80.3,96.07 81.48,95.12 83.13,95.27 89.79,86.67 80.36,79.9 63.72,90.19 " />
      <polygon
         id="polygon1273"
         fill="#c8a87f"
         points="16.66,103.73 14.83,113.88 30.01,112.56 33.63,102.26 " />
      <polygon
         id="polygon1275"
         fill="#c8a87f"
         points="51.96,135.06 51.96,123.61 76.55,120.09 77.83,131.35 " />
      <polygon
         id="polygon1277"
         fill="#b2926f"
         points="40.19,90.19 37.83,92.71 23.32,84.1 15.96,89.05 14.13,86.67 23.55,79.9 " />
      <polygon
         id="polygon1279"
         fill="#b2926f"
         points="63.72,90.19 66.08,92.71 80.59,84.1 87.95,89.05 89.79,86.67 80.36,79.9 " />
      <polygon
         id="polygon1281"
         fill="#b2926f"
         points="54.86,107.49 57.2,107.49 51.96,97.05 46.71,107.49 49.25,107.49 51.96,102.82 " />
      <polygon
         id="polygon1283"
         fill="#b2926f"
         points="79.42,94.93 76.75,102.82 77.83,112.9 79.73,110.56 82.35,113.29 80.36,103.13 81.48,95.12 80.3,96.07 " />
      <polygon
         id="polygon1285"
         fill="#b2926f"
         points="71.24,53.09 73.63,50.8 71.8,69.88 74.41,81.47 67.15,70.83 69.24,49.99 " />
      <polygon
         id="polygon1287"
         fill="#bf9d7c"
         points="78.62,103.35 79.73,110.56 82.35,113.29 80.36,103.13 81.48,95.12 80.3,96.07 " />
      <polygon
         id="polygon1289"
         fill="#bf9d7c"
         points="73.63,50.8 71.24,53.09 69.6,70.58 74.41,81.47 71.8,69.88 " />
      <path
         id="path1291"
         opacity="0.5"
         fill="#b2926f"
         d="M 77.83,131.35 52,135.06 27.31,131.52 c 0.16,-0.11 0.25,-0.27 0.42,-0.31 0.52,-0.13 1.07,0.08 1.7,0 -0.1,-0.62 -0.42,-1.24 0.12,-1.79 0.38,-0.39 1.05,-0.51 1.28,0 1.81,-0.37 1.14,0.74 2.5,1.6 0.69,0.43 1.95,0.25 2.76,0.41 0.1,-0.73 -0.46,-1.87 0.23,-2.33 0.69,-0.46 2.58,0.43 3,0.83 0,-0.76 -0.36,-4.86 0.46,-5.07 a 10.14,10.14 0 0 1 2.76,1.37 c 0.58,0.72 0,1.42 -0.36,2.13 1.9,-0.12 2.49,2.43 3.93,2 0.87,-0.3 1.16,-1.48 1.71,-1.87 0.55,-0.39 0.88,-0.31 1.64,-0.28 0.76,0.03 2.1,-0.18 2.35,0.47 0.25,0.65 -0.53,0.66 0,1.32 a 6.79,6.79 0 0 0 2.8,1.11 c 1.18,0.07 1.51,-1.12 2.35,-1.95 -1,-0.28 0.22,-1.38 0.69,-1.64 1.06,-0.58 1.4,-0.06 2.39,0.67 2.06,1.5 6.42,-0.63 7.85,1.8 1.08,-0.56 3.2,-0.87 4,-1.64 0.31,-0.32 0.53,-1.22 0.87,-1.64 0.34,-0.42 0.53,-0.56 0.78,-0.94 0.64,-0.92 0.88,-1.55 1.71,-1.8 z" />
      <path
         id="path1293"
         opacity="0.5"
         fill="#b2926f"
         d="m 101.92,97.85 -12.84,16 -5.64,-0.49 a 1,1 0 0 1 0.36,-0.68 3.5,3.5 0 0 1 2.07,0.49 c 0.11,-0.67 0.92,-0.5 1.46,-0.5 0.42,-1 -0.51,-1.79 -0.31,-2.85 a 4.17,4.17 0 0 1 1.18,-2.18 c 0.78,-0.42 1,0.34 1.74,0.38 2.07,0.11 0.91,-2.53 1.13,-3.62 0.33,-1.67 2.61,-4.1 4.3,-4.4 0.3,0.79 0.93,0.46 1.48,0.21 0.05,0.11 0.18,0.24 0.22,0.32 0.91,-0.67 0.6,-2.25 0.66,-3.28 a 8.4,8.4 0 0 1 2.07,0.19 c -0.62,-1 -1.64,-1.94 -1.15,-3.17 a 1.8,1.8 0 0 1 0.43,-0.59 z" />
      <path
         id="path1295"
         opacity="0.5"
         fill="#b2926f"
         d="m 30.53,109.67 c -1,0.06 -0.7,0.74 -0.9,1.43 a 2.9,2.9 0 0 1 -1.24,1.6 L 14.84,113.88 2,97.85 2.48,97.16 a 4.71,4.71 0 0 1 1,0.8 c 0.49,0.48 0.63,1.05 1.15,1.53 0.52,0.48 0.71,0.4 1,1 0.22,0.39 0.21,0.88 0.44,1.26 a 6.67,6.67 0 0 1 0.61,0.43 14,14 0 0 1 1.16,1.75 c 0.5,0.79 1,2.2 2,1.51 0.28,-0.19 0.06,-0.83 0.52,-0.91 0.46,-0.08 0.69,0.63 0.93,0.91 a 3.63,3.63 0 0 0 2.66,1.5 c 0.86,0 1.12,-0.35 1.62,0.31 a 4.94,4.94 0 0 1 0.4,1.87 c 0.17,1.18 0.31,1.5 1.68,1.08 -0.17,-1.19 2.06,-2.51 3.09,-2.4 0.87,0.1 0.3,0.25 0.79,0.72 a 3,3 0 0 0 2.38,0.86 c 1.91,0 5.12,-2.45 6.14,0.18 z" />
    </g>
  </g>
</svg>
