<svg xmlns="http://www.w3.org/2000/svg" xmlns:xlink="http://www.w3.org/1999/xlink" width="103.91" height="135.06" viewBox="0 0 103.91 135.06">
  <defs>
    <linearGradient id="linear-gradient" x1="51.96" y1="41.87" x2="51.96" y2="5.88" gradientUnits="userSpaceOnUse">
      <stop offset="0" stop-color="#f16026"/>
      <stop offset="1" stop-color="#f19e26"/>
    </linearGradient>
    <linearGradient id="linear-gradient-2" x1="51.96" y1="34.46" x2="51.96" gradientUnits="userSpaceOnUse">
      <stop offset="0" stop-color="#fff07c"/>
      <stop offset="1" stop-color="#ffffe0"/>
    </linearGradient>
    <linearGradient id="linear-gradient-3" x1="51.96" y1="30.93" x2="51.96" y2="2.86" gradientUnits="userSpaceOnUse">
      <stop offset="0" stop-color="#cf5b1d"/>
      <stop offset="1" stop-color="#f19e26"/>
    </linearGradient>
    <linearGradient id="linear-gradient-4" x1="51.96" y1="29.89" x2="51.96" y2="2" gradientUnits="userSpaceOnUse">
      <stop offset="0" stop-color="#fca606"/>
      <stop offset="1" stop-color="#fcde06"/>
    </linearGradient>
    <linearGradient id="linear-gradient-5" x1="17.34" y1="49.69" x2="17.34" y2="20.89" xlink:href="#linear-gradient"/>
    <linearGradient id="linear-gradient-6" x1="17.34" y1="43.76" x2="17.34" y2="16.19" xlink:href="#linear-gradient-2"/>
    <linearGradient id="linear-gradient-7" x1="17.34" y1="40.93" x2="17.34" y2="18.48" xlink:href="#linear-gradient-3"/>
    <linearGradient id="linear-gradient-8" x1="17.34" y1="40.1" x2="17.34" y2="17.79" xlink:href="#linear-gradient-4"/>
    <linearGradient id="linear-gradient-9" x1="86.58" y1="49.69" x2="86.58" y2="20.89" xlink:href="#linear-gradient"/>
    <linearGradient id="linear-gradient-10" x1="86.58" y1="43.76" x2="86.58" y2="16.19" xlink:href="#linear-gradient-2"/>
    <linearGradient id="linear-gradient-11" x1="86.58" y1="40.93" x2="86.58" y2="18.48" xlink:href="#linear-gradient-3"/>
    <linearGradient id="linear-gradient-12" x1="86.58" y1="40.1" x2="86.58" y2="17.79" xlink:href="#linear-gradient-4"/>
  </defs>
  <title>Element 4</title>
  <g id="Ebene_2">
    <g id="Layer_1">
      <g>
        <path d="M101.92,97.85l-12.84,16-5.64-.49-1.09-.09-2.61-2.75-1.91,2.35-6.6-.57,4,11.59,2.58,7.43L52,135.06l-24.69-3.54-1.18-.17,6.61-19-4.3.37-13.55,1.18L2,97.85l.48-.69L10.36,85.7l3.81-17.57s10.29-8.69,13-9.58L52,54.32l24.84,4.23c2.67.89,13,9.58,13,9.58l3.8,17.57,5.53,8Z" fill="#e8d1a8"/>
        <path d="M52,47.11l-23.61,4C25.81,52,16,60.24,16,60.24l-3.62,16.7-8,11.55,12.21,15.24,17-1.47-6.27,17.83L52,123.62l24.59-3.53-6.27-17.83,17,1.47L99.46,88.49l-8-11.55-3.62-16.7S78.1,52,75.56,51.12l-1.94-.33-2.38,2.3-2-3.1Z" fill="#f4e2bc"/>
        <polygon points="74.41 59.19 84.68 60.65 75.09 53.17 74.41 53.07 74.41 59.19" fill="#f9f9df"/>
        <polygon points="68.34 52.15 51.95 49.69 28.98 53.17 18.61 61.88 14.83 77.04 8.22 85.36 13.21 85.36 23.32 76.3 36.86 83.84 28.84 69.81 31.21 64.03 51.96 55.99 66.81 58.1 68.34 52.15" fill="#f9f9df"/>
        <polygon points="101.92 97.85 99.46 88.49 87.25 103.73 89.08 113.88 101.92 97.85" fill="#c8a87f"/>
        <polygon points="4.45 88.49 1.99 97.85 14.83 113.88 16.66 103.73 4.45 88.49" fill="#e8d1a8"/>
        <polygon points="27.36 120.09 26.08 131.35 51.96 135.06 77.83 131.35 76.55 120.09 51.96 123.61 27.36 120.09" fill="#e8d1a8"/>
        <g>
          <g>
            <path d="M73.16,12.5l-5.28,4.24,0,.31L63,16.42a6.94,6.94,0,0,1-4.86-2.79L53.36,6.55a1.8,1.8,0,0,0-2.81,0l-4.82,7.08a6.94,6.94,0,0,1-4.86,2.79L36.36,17l-5.61-4.5-.46,6.41h0a1.14,1.14,0,0,0,.29,1L37,27.12a5.29,5.29,0,0,1,1.3,4.41l-.18,1.13-.84.09L37,40.08a1.68,1.68,0,0,0,2.32,1.7l10.27-3.33a8,8,0,0,1,4.83,0l10.27,3.33A1.68,1.68,0,0,0,67,40.08l-.34-7.33-.81.13-.21-1.35a5.32,5.32,0,0,1,1.3-4.41l6.42-7.25a1.14,1.14,0,0,0,.29-1h0Z" fill="url(#linear-gradient)"/>
            <path d="M53.33.65l4.72,6.79a6.86,6.86,0,0,0,4.76,2.68l8.88,1.11c1.26.16,1.91,1.37,1.17,2.19l-6.28,6.93a5,5,0,0,0-1.28,4.23l1.32,8.17a1.64,1.64,0,0,1-2.27,1.62l-10-3.18a7.88,7.88,0,0,0-4.71,0l-10,3.18a1.64,1.64,0,0,1-2.27-1.62l1.32-8.17a5,5,0,0,0-1.28-4.23l-6.28-6.93c-.74-.82-.08-2,1.17-2.19l8.88-1.11a6.86,6.86,0,0,0,4.76-2.68L50.58.65A1.78,1.78,0,0,1,53.33.65Z" fill="url(#linear-gradient-2)"/>
            <path d="M69.29,13.18l-.08-1-.55.2a1.61,1.61,0,0,0-.56-.19l-7.26-.91A5.55,5.55,0,0,1,57,9L53.09,3.4a1.48,1.48,0,0,0-2.27,0L47,9a5.55,5.55,0,0,1-3.89,2.21l-7.26.91a1.7,1.7,0,0,0-.51.17l-.61-.1-.07,1h0a.9.9,0,0,0,.25.67l5.18,5.66A4.07,4.07,0,0,1,41.13,23l-.89,5.73-.09,0,0,.74v.07a.76.76,0,0,0,0,.3v0h0a1.38,1.38,0,0,0,1.84,1l8.09-2.54a6.51,6.51,0,0,1,3.81,0L62,30.86a1.4,1.4,0,0,0,1.85-1h0v0a.76.76,0,0,0,0-.3v-.05l0-.82h-.1L62.78,23a4.07,4.07,0,0,1,1.07-3.42L69,13.93a.91.91,0,0,0,.25-.75Z" fill="url(#linear-gradient-3)"/>
            <path d="M53.09,2.53l3.85,5.59a5.54,5.54,0,0,0,3.87,2.19l7.24.91c1,.13,1.54,1.12.93,1.78l-5.17,5.62A4,4,0,0,0,62.74,22l1,6.52a1.32,1.32,0,0,1-1.83,1.28l-8.07-2.52a6.44,6.44,0,0,0-3.79,0L42,29.81a1.32,1.32,0,0,1-1.83-1.28l1-6.52a4,4,0,0,0-1.07-3.39L34.93,13c-.61-.66-.09-1.65.93-1.78l7.24-.91A5.54,5.54,0,0,0,47,8.12l3.86-5.59A1.47,1.47,0,0,1,53.09,2.53Z" fill="url(#linear-gradient-4)"/>
            <path d="M52.06,3.52c.69,0,1,.55,1.29,1a48,48,0,0,1,2.91,5.39,1.65,1.65,0,0,1,.26,1.29c-.18.46-.72.68-1.2.86a41.46,41.46,0,0,0-11.74,6.73A2.44,2.44,0,0,1,41.9,18a59.86,59.86,0,0,1-4.77-4.79C36,12,38.58,11.72,39.41,11.63c1.26-.14,2.5-.32,3.74-.52a9,9,0,0,0,3.27-.8,8.14,8.14,0,0,0,2.71-3,12.56,12.56,0,0,1,2.2-3.4,1.46,1.46,0,0,1,.61-.33Z" fill="#fff" opacity="0.35"/>
            <path d="M62.5,27.3c.06.94-.49,1.49-1.51,1.19a15.39,15.39,0,0,0-1.55-.59c0-1,1.55-2.76,2.62-2C62.37,26.1,62.46,26.73,62.5,27.3Z" fill="#fff" opacity="0.2"/>
          </g>
          <g>
            <path d="M34.3,26.19l-4.22,3.39v.25l-3.88-.5a5.51,5.51,0,0,1-3.89-2.24l-3.86-5.66a1.44,1.44,0,0,0-2.25,0l-3.86,5.66a5.51,5.51,0,0,1-3.88,2.24l-3.61.46L.37,26.19,0,31.31H0a.94.94,0,0,0,.23.77l5.14,5.8a4.27,4.27,0,0,1,1,3.53l-.14.91-.68.07-.27,5.86a1.35,1.35,0,0,0,1.85,1.36L15.41,47a6.33,6.33,0,0,1,3.85,0l8.23,2.66a1.35,1.35,0,0,0,1.85-1.36l-.27-5.86-.65.1-.17-1.08a4.27,4.27,0,0,1,1-3.53l5.14-5.8a.94.94,0,0,0,.23-.77h0Z" fill="url(#linear-gradient-5)"/>
            <path d="M18.44,16.7l3.77,5.44A5.47,5.47,0,0,0,26,24.28l7.1.89c1,.13,1.53,1.1.94,1.75l-5,5.55a4,4,0,0,0-1,3.38l1.06,6.54a1.31,1.31,0,0,1-1.82,1.29l-8-2.54a6.38,6.38,0,0,0-3.77,0l-8,2.54A1.31,1.31,0,0,1,5.6,42.39l1.06-6.54a4,4,0,0,0-1-3.38l-5-5.55c-.59-.65-.07-1.62.94-1.75l7.1-.89a5.47,5.47,0,0,0,3.81-2.14l3.77-5.44A1.45,1.45,0,0,1,18.44,16.7Z" fill="url(#linear-gradient-6)"/>
            <path d="M31.21,26.73l-.07-.84-.44.17a1.27,1.27,0,0,0-.45-.16l-5.81-.73a4.46,4.46,0,0,1-3.11-1.76l-3.09-4.5a1.17,1.17,0,0,0-1.81,0l-3.09,4.5a4.46,4.46,0,0,1-3.11,1.76l-5.81.73A1.4,1.4,0,0,0,4,26L3.52,26l-.06.84h0a.8.8,0,0,0,.2.55l4.15,4.52a3.27,3.27,0,0,1,.86,2.73L8,39.18l-.08,0,0,.59v.05a.71.71,0,0,0,0,.25h0a1.11,1.11,0,0,0,1.48.77l6.47-2a5.12,5.12,0,0,1,3,0l6.47,2a1.11,1.11,0,0,0,1.48-.77h0v0a1,1,0,0,0,0-.24v0l0-.65H26.7L26,34.59a3.27,3.27,0,0,1,.86-2.73L31,27.34a.73.73,0,0,0,.19-.61Z" fill="url(#linear-gradient-7)"/>
            <path d="M18.24,18.21l3.08,4.47a4.44,4.44,0,0,0,3.1,1.76l5.79.72c.82.11,1.23.9.74,1.43l-4.13,4.49A3.21,3.21,0,0,0,26,33.8l.8,5.21a1.05,1.05,0,0,1-1.46,1l-6.46-2a5.21,5.21,0,0,0-3,0L9.36,40A1.05,1.05,0,0,1,7.9,39l.8-5.21a3.21,3.21,0,0,0-.85-2.72L3.72,26.59c-.49-.53-.07-1.32.74-1.43l5.79-.72a4.44,4.44,0,0,0,3.1-1.76l3.08-4.47A1.17,1.17,0,0,1,18.24,18.21Z" fill="url(#linear-gradient-8)"/>
            <path d="M17.42,19c.55,0,.78.43,1,.79a38,38,0,0,1,2.33,4.32,1.33,1.33,0,0,1,.2,1c-.14.37-.57.54-.95.69a32.79,32.79,0,0,0-9.4,5.38,1.93,1.93,0,0,1-1.34-.62,47.34,47.34,0,0,1-3.81-3.82c-.9-1,1.15-1.22,1.82-1.29,1-.11,2-.25,3-.42a7.06,7.06,0,0,0,2.62-.64A6.53,6.53,0,0,0,15.08,22a9.82,9.82,0,0,1,1.75-2.72,1.25,1.25,0,0,1,.49-.27Z" fill="#fff" opacity="0.35"/>
            <path d="M25.77,38c.05.75-.39,1.19-1.21.95a10.9,10.9,0,0,0-1.24-.47c0-.78,1.24-2.21,2.1-1.61C25.66,37.07,25.74,37.57,25.77,38Z" fill="#fff" opacity="0.2"/>
          </g>
          <g>
            <path d="M103.54,26.19l-4.22,3.39v.25l-3.88-.5a5.51,5.51,0,0,1-3.89-2.24L87.7,21.43a1.44,1.44,0,0,0-2.25,0l-3.86,5.66a5.51,5.51,0,0,1-3.89,2.24l-3.6.46-4.49-3.6-.37,5.12h0a.94.94,0,0,0,.23.77l5.14,5.8a4.27,4.27,0,0,1,1,3.53l-.14.91-.68.07-.27,5.86a1.35,1.35,0,0,0,1.85,1.36L84.65,47a6.33,6.33,0,0,1,3.85,0l8.23,2.66a1.35,1.35,0,0,0,1.85-1.36l-.27-5.86-.65.1-.17-1.08a4.27,4.27,0,0,1,1-3.53l5.14-5.8a.94.94,0,0,0,.23-.77h0Z" fill="url(#linear-gradient-9)"/>
            <path d="M87.68,16.7l3.77,5.44a5.47,5.47,0,0,0,3.81,2.14l7.1.89c1,.13,1.53,1.1.94,1.75l-5,5.55a4,4,0,0,0-1,3.38l1.06,6.54a1.31,1.31,0,0,1-1.82,1.29l-8-2.54a6.38,6.38,0,0,0-3.77,0l-8,2.54a1.31,1.31,0,0,1-1.82-1.29l1.06-6.54a4,4,0,0,0-1-3.38l-5-5.55c-.59-.65-.07-1.62.94-1.75l7.1-.89a5.47,5.47,0,0,0,3.81-2.14l3.77-5.44A1.45,1.45,0,0,1,87.68,16.7Z" fill="url(#linear-gradient-10)"/>
            <path d="M100.45,26.73l-.07-.84-.44.17a1.27,1.27,0,0,0-.45-.16l-5.81-.73a4.46,4.46,0,0,1-3.11-1.76l-3.09-4.5a1.17,1.17,0,0,0-1.81,0l-3.09,4.5a4.46,4.46,0,0,1-3.11,1.76l-5.81.73a1.4,1.4,0,0,0-.41.13L72.76,26l-.06.84h0a.8.8,0,0,0,.2.55l4.15,4.52a3.27,3.27,0,0,1,.86,2.73l-.71,4.59-.08,0,0,.59v.05a1,1,0,0,0,0,.25h0a1.11,1.11,0,0,0,1.48.77l6.47-2a5.12,5.12,0,0,1,3,0l6.47,2a1.11,1.11,0,0,0,1.48-.77h0v0a1,1,0,0,0,0-.24v0l0-.65h-.08l-.71-4.56a3.27,3.27,0,0,1,.86-2.73l4.15-4.52a.76.76,0,0,0,.19-.61Z" fill="url(#linear-gradient-11)"/>
            <path d="M87.48,18.21l3.08,4.47a4.44,4.44,0,0,0,3.1,1.76l5.79.72c.82.11,1.23.9.74,1.43l-4.13,4.49a3.21,3.21,0,0,0-.85,2.72L96,39a1.05,1.05,0,0,1-1.46,1l-6.46-2a5.21,5.21,0,0,0-3,0L78.6,40a1.05,1.05,0,0,1-1.46-1l.8-5.21a3.21,3.21,0,0,0-.85-2.72L73,26.59c-.49-.53-.07-1.32.74-1.43l5.79-.72a4.44,4.44,0,0,0,3.1-1.76l3.08-4.47A1.17,1.17,0,0,1,87.48,18.21Z" fill="url(#linear-gradient-12)"/>
            <path d="M86.66,19c.55,0,.78.43,1,.79A38,38,0,0,1,90,24.12a1.33,1.33,0,0,1,.2,1c-.14.37-.57.54-1,.69a32.79,32.79,0,0,0-9.4,5.38,1.93,1.93,0,0,1-1.34-.62,47.34,47.34,0,0,1-3.81-3.82c-.9-1,1.15-1.22,1.82-1.29,1-.11,2-.25,3-.42a7.06,7.06,0,0,0,2.62-.64A6.71,6.71,0,0,0,84.32,22a9.82,9.82,0,0,1,1.75-2.72,1.25,1.25,0,0,1,.49-.27Z" fill="#fff" opacity="0.35"/>
            <path d="M95,38c0,.75-.39,1.19-1.21.95a10.9,10.9,0,0,0-1.24-.47c0-.78,1.24-2.21,2.1-1.61C94.9,37.07,95,37.57,95,38Z" fill="#fff" opacity="0.2"/>
          </g>
        </g>
        <g>
          <polygon points="51.95 97.05 51.95 97.05 51.96 97.05 51.95 97.05" fill="#c8a87f"/>
          <polygon points="51.95 97.05 46.71 107.49 51.95 107.49 57.2 107.49 51.95 97.05" fill="#c8a87f"/>
        </g>
        <polygon points="20.78 95.27 14.13 86.67 23.55 79.9 40.19 90.19 36.81 93.79 20.78 95.27" fill="#c8a87f"/>
        <polygon points="83.13 95.27 89.79 86.67 80.36 79.9 63.72 90.19 67.1 93.79 79.42 94.93 80.3 96.07 81.48 95.12 83.13 95.27" fill="#c8a87f"/>
        <polygon points="16.66 103.73 14.83 113.88 30.01 112.56 33.63 102.26 16.66 103.73" fill="#c8a87f"/>
        <polygon points="51.96 135.06 51.96 123.61 76.55 120.09 77.83 131.35 51.96 135.06" fill="#c8a87f"/>
        <polygon points="14.13 86.67 23.55 79.9 40.19 90.19 37.83 92.71 23.32 84.1 15.96 89.05 14.13 86.67" fill="#b2926f"/>
        <polygon points="89.79 86.67 80.36 79.9 63.72 90.19 66.08 92.71 80.59 84.1 87.95 89.05 89.79 86.67" fill="#b2926f"/>
        <polygon points="49.25 107.49 51.96 102.82 54.86 107.49 57.2 107.49 51.96 97.05 46.71 107.49 49.25 107.49" fill="#b2926f"/>
        <polygon points="82.35 113.29 80.36 103.13 81.48 95.12 80.3 96.07 79.42 94.93 76.75 102.82 77.83 112.9 79.73 110.56 82.35 113.29" fill="#b2926f"/>
        <polygon points="67.15 70.83 69.24 49.99 71.24 53.09 73.63 50.8 71.8 69.88 74.41 81.47 67.15 70.83" fill="#b2926f"/>
        <polygon points="81.48 95.12 80.3 96.07 78.62 103.35 79.73 110.56 82.35 113.29 80.36 103.13 81.48 95.12" fill="#bf9d7c"/>
        <polygon points="73.63 50.8 71.24 53.09 69.6 70.58 74.41 81.47 71.8 69.88 73.63 50.8" fill="#bf9d7c"/>
        <path d="M77.83,131.35,52,135.06l-24.69-3.54c.16-.11.25-.27.42-.31.52-.13,1.07.08,1.7,0-.1-.62-.42-1.24.12-1.79.38-.39,1.05-.51,1.28,0,1.81-.37,1.14.74,2.5,1.6.69.43,1.95.25,2.76.41.1-.73-.46-1.87.23-2.33s2.58.43,3,.83c0-.76-.36-4.86.46-5.07a10.14,10.14,0,0,1,2.76,1.37c.58.72,0,1.42-.36,2.13,1.9-.12,2.49,2.43,3.93,2,.87-.3,1.16-1.48,1.71-1.87s.88-.31,1.64-.28,2.1-.18,2.35.47-.53.66,0,1.32a6.79,6.79,0,0,0,2.8,1.11c1.18.07,1.51-1.12,2.35-1.95-1-.28.22-1.38.69-1.64,1.06-.58,1.4-.06,2.39.67,2.06,1.5,6.42-.63,7.85,1.8,1.08-.56,3.2-.87,4-1.64.31-.32.53-1.22.87-1.64s.53-.56.78-.94c.64-.92.88-1.55,1.71-1.8Z" fill="#b2926f" opacity="0.5"/>
        <path d="M101.92,97.85l-12.84,16-5.64-.49a1,1,0,0,1,.36-.68,3.5,3.5,0,0,1,2.07.49c.11-.67.92-.5,1.46-.5.42-1-.51-1.79-.31-2.85a4.17,4.17,0,0,1,1.18-2.18c.78-.42,1,.34,1.74.38,2.07.11.91-2.53,1.13-3.62.33-1.67,2.61-4.1,4.3-4.4.3.79.93.46,1.48.21.05.11.18.24.22.32.91-.67.6-2.25.66-3.28a8.4,8.4,0,0,1,2.07.19c-.62-1-1.64-1.94-1.15-3.17a1.8,1.8,0,0,1,.43-.59Z" fill="#b2926f" opacity="0.5"/>
        <path d="M30.53,109.67c-1,.06-.7.74-.9,1.43a2.9,2.9,0,0,1-1.24,1.6l-13.55,1.18L2,97.85l.48-.69a4.71,4.71,0,0,1,1,.8c.49.48.63,1.05,1.15,1.53s.71.4,1,1c.22.39.21.88.44,1.26a6.67,6.67,0,0,1,.61.43,14,14,0,0,1,1.16,1.75c.5.79,1,2.2,2,1.51.28-.19.06-.83.52-.91s.69.63.93.91a3.63,3.63,0,0,0,2.66,1.5c.86,0,1.12-.35,1.62.31a4.94,4.94,0,0,1,.4,1.87c.17,1.18.31,1.5,1.68,1.08-.17-1.19,2.06-2.51,3.09-2.4.87.1.3.25.79.72a3,3,0,0,0,2.38.86c1.91,0,5.12-2.45,6.14.18Z" fill="#b2926f" opacity="0.5"/>
      </g>
    </g>
  </g>
</svg>
