<svg xmlns="http://www.w3.org/2000/svg" xmlns:xlink="http://www.w3.org/1999/xlink" width="104.72" height="136.11" viewBox="0 0 104.72 136.11">
  <defs>
    <linearGradient id="linear-gradient" x1="52.36" y1="42.2" x2="52.36" y2="5.92" gradientUnits="userSpaceOnUse">
      <stop offset="0" stop-color="#f16026"/>
      <stop offset="1" stop-color="#f19e26"/>
    </linearGradient>
    <linearGradient id="linear-gradient-2" x1="52.36" y1="34.73" x2="52.36" gradientUnits="userSpaceOnUse">
      <stop offset="0" stop-color="#fff07c"/>
      <stop offset="1" stop-color="#ffffe0"/>
    </linearGradient>
    <linearGradient id="linear-gradient-3" x1="52.36" y1="31.18" x2="52.36" y2="2.89" gradientUnits="userSpaceOnUse">
      <stop offset="0" stop-color="#cf5b1d"/>
      <stop offset="1" stop-color="#f19e26"/>
    </linearGradient>
    <linearGradient id="linear-gradient-4" x1="52.36" y1="30.12" x2="52.36" y2="2.01" gradientUnits="userSpaceOnUse">
      <stop offset="0" stop-color="#fca606"/>
      <stop offset="1" stop-color="#fcde06"/>
    </linearGradient>
    <linearGradient id="linear-gradient-5" x1="17.47" y1="50.08" x2="17.47" y2="21.05" xlink:href="#linear-gradient"/>
    <linearGradient id="linear-gradient-6" x1="17.47" y1="44.1" x2="17.47" y2="16.31" xlink:href="#linear-gradient-2"/>
    <linearGradient id="linear-gradient-7" x1="17.47" y1="41.26" x2="17.47" y2="18.62" xlink:href="#linear-gradient-3"/>
    <linearGradient id="linear-gradient-8" x1="17.47" y1="40.41" x2="17.47" y2="17.93" xlink:href="#linear-gradient-4"/>
    <linearGradient id="linear-gradient-9" x1="87.25" y1="50.08" x2="87.25" y2="21.05" gradientUnits="userSpaceOnUse">
      <stop offset="0" stop-color="#9c9c9c"/>
      <stop offset="1" stop-color="#fff"/>
    </linearGradient>
    <linearGradient id="linear-gradient-10" x1="87.25" y1="44.1" x2="87.25" y2="16.31" gradientUnits="userSpaceOnUse">
      <stop offset="0" stop-color="#e8e8e8"/>
      <stop offset="1" stop-color="#fff"/>
    </linearGradient>
    <linearGradient id="linear-gradient-11" x1="87.25" y1="41.26" x2="87.25" y2="18.62" gradientUnits="userSpaceOnUse">
      <stop offset="0" stop-color="#a7a7a7"/>
      <stop offset="1" stop-color="#fff"/>
    </linearGradient>
    <linearGradient id="linear-gradient-12" x1="87.25" y1="40.41" x2="87.25" y2="17.93" gradientUnits="userSpaceOnUse">
      <stop offset="0" stop-color="#c9c9c9"/>
      <stop offset="1" stop-color="#ebebeb"/>
    </linearGradient>
  </defs>
  <title>Element 3</title>
  <g id="Ebene_2">
    <g id="Layer_1">
      <g>
        <path d="M102.72,98.61,89.78,114.77l-5.69-.49-1.09-.1-2.64-2.76-1.93,2.36-6.65-.57,4,11.68,2.6,7.49-26.07,3.73-24.89-3.56-1.19-.17,6.66-19.17-4.33.38L15,114.77,2,98.61l.47-.69,8-11.55,3.84-17.7S24.65,59.91,27.33,59l25-4.25,25,4.25c2.69.91,13.06,9.67,13.06,9.67l3.84,17.7,5.56,8.07Z" fill="#e8d1a8"/>
        <path d="M52.36,47.48l-23.79,4c-2.56.87-12.42,9.19-12.42,9.19L12.51,77.54l-8,11.64,12.3,15.36,17.11-1.48-6.33,18,24.79,3.55L77.15,121l-6.32-18,17.1,1.48,12.31-15.36-8-11.64L88.57,60.71s-9.86-8.32-12.41-9.19l-2-.33-2.4,2.32-2-3.13Z" fill="#f4e2bc"/>
        <polygon points="74.99 59.65 85.35 61.12 75.68 53.59 74.99 53.48 74.99 59.65" fill="#f9f9df"/>
        <polygon points="68.88 52.56 52.36 50.08 29.21 53.59 18.76 62.37 14.95 77.65 8.28 86.03 13.31 86.03 23.5 76.9 37.14 84.5 29.07 70.36 31.45 64.53 52.36 56.43 67.33 58.56 68.88 52.56" fill="#f9f9df"/>
        <polygon points="102.72 98.61 100.24 89.18 87.93 104.54 89.78 114.77 102.72 98.61" fill="#c8a87f"/>
        <polygon points="4.49 89.18 2 98.61 14.95 114.77 16.79 104.54 4.49 89.18" fill="#e8d1a8"/>
        <polygon points="27.57 121.03 26.29 132.38 52.36 136.11 78.44 132.38 77.15 121.03 52.36 124.58 27.57 121.03" fill="#e8d1a8"/>
        <g>
          <g>
            <path d="M73.74,12.59l-5.32,4.28v.31l-4.89-.63a7,7,0,0,1-4.9-2.81L53.78,6.6A1.82,1.82,0,0,0,51,6.6l-4.86,7.14a7,7,0,0,1-4.9,2.81l-4.54.58L31,12.59l-.47,6.46h0a1.15,1.15,0,0,0,.29,1l6.47,7.31a5.38,5.38,0,0,1,1.31,4.45l-.18,1.14-.85.09-.34,7.39a1.69,1.69,0,0,0,2.33,1.7l10.36-3.35a8.06,8.06,0,0,1,4.86,0L65.15,42.1a1.7,1.7,0,0,0,2.34-1.7L67.14,33l-.81.13-.22-1.36a5.38,5.38,0,0,1,1.32-4.45L73.89,20a1.2,1.2,0,0,0,.3-1h0Z" fill="url(#linear-gradient)"/>
            <path d="M53.75.65,58.51,7.5a6.82,6.82,0,0,0,4.79,2.69l9,1.13c1.27.16,1.93,1.38,1.18,2.2l-6.33,7a5.09,5.09,0,0,0-1.29,4.26L67.14,33a1.65,1.65,0,0,1-2.28,1.63l-10.12-3.2a7.86,7.86,0,0,0-4.75,0l-10.12,3.2A1.65,1.65,0,0,1,37.58,33l1.34-8.24a5.09,5.09,0,0,0-1.29-4.26l-6.34-7c-.74-.82-.08-2,1.18-2.2l9-1.13a6.87,6.87,0,0,0,4.8-2.69L51,.65A1.81,1.81,0,0,1,53.75.65Z" fill="url(#linear-gradient-2)"/>
            <path d="M69.84,13.28l-.09-1.06-.55.21a1.67,1.67,0,0,0-.57-.19l-7.31-.92A5.58,5.58,0,0,1,57.4,9.09L53.5,3.43a1.47,1.47,0,0,0-2.28,0l-3.9,5.66a5.56,5.56,0,0,1-3.91,2.23l-7.32.92a1.61,1.61,0,0,0-.51.16L35,12.3l-.07,1.06h0a.91.91,0,0,0,.25.68l5.23,5.7a4.1,4.1,0,0,1,1.07,3.45L40.56,29l-.09,0,0,.74v.07a1.61,1.61,0,0,0,0,.31h0a1.4,1.4,0,0,0,1.86,1l8.15-2.56a6.61,6.61,0,0,1,3.84,0l8.16,2.56a1.39,1.39,0,0,0,1.85-1h0v0a.76.76,0,0,0,0-.3v-.05l0-.82h-.1l-.89-5.74a4.14,4.14,0,0,1,1.08-3.45L69.57,14a.94.94,0,0,0,.25-.76Z" fill="url(#linear-gradient-3)"/>
            <path d="M53.5,2.55l3.88,5.63a5.59,5.59,0,0,0,3.91,2.21l7.29.92c1,.13,1.55,1.12.94,1.79l-5.21,5.66a4.08,4.08,0,0,0-1.08,3.42l1,6.57a1.34,1.34,0,0,1-1.85,1.3l-8.13-2.54a6.38,6.38,0,0,0-3.82,0l-8.13,2.54a1.34,1.34,0,0,1-1.85-1.3l1-6.57a4.1,4.1,0,0,0-1.07-3.42L35.2,13.1c-.61-.67-.08-1.66.94-1.79l7.3-.92a5.57,5.57,0,0,0,3.9-2.21l3.88-5.63A1.47,1.47,0,0,1,53.5,2.55Z" fill="url(#linear-gradient-4)"/>
            <path d="M52.47,3.55c.69,0,1,.55,1.3,1A47.84,47.84,0,0,1,56.7,10a1.67,1.67,0,0,1,.26,1.3c-.18.46-.72.68-1.21.86a41.64,41.64,0,0,0-11.83,6.79,2.43,2.43,0,0,1-1.69-.78,59,59,0,0,1-4.8-4.82c-1.13-1.28,1.45-1.53,2.29-1.62,1.26-.14,2.52-.32,3.77-.53a9.19,9.19,0,0,0,3.3-.8,8.42,8.42,0,0,0,2.73-3.06A12.51,12.51,0,0,1,51.73,3.9a1.34,1.34,0,0,1,.62-.33Z" fill="#fff" opacity="0.35"/>
            <path d="M63,27.51c.06.95-.49,1.51-1.52,1.2a15.72,15.72,0,0,0-1.57-.59c0-1,1.57-2.79,2.65-2C62.85,26.31,63,26.93,63,27.51Z" fill="#fff" opacity="0.2"/>
          </g>
          <g>
            <path d="M34.57,26.39l-4.26,3.42,0,.25-3.92-.5a5.6,5.6,0,0,1-3.92-2.26L18.6,21.59a1.45,1.45,0,0,0-2.26,0L12.45,27.3a5.6,5.6,0,0,1-3.92,2.26L4.9,30,.37,26.39,0,31.56H0a.92.92,0,0,0,.24.77l5.17,5.85a4.27,4.27,0,0,1,1,3.56l-.14.91-.68.07-.28,5.91A1.36,1.36,0,0,0,7.24,50l8.29-2.68a6.3,6.3,0,0,1,3.89,0L27.7,50a1.36,1.36,0,0,0,1.87-1.37l-.27-5.91-.66.1-.17-1.08a4.34,4.34,0,0,1,1.05-3.56l5.18-5.85a1,1,0,0,0,.23-.77h0Z" fill="url(#linear-gradient-5)"/>
            <path d="M18.58,16.84l3.81,5.47a5.45,5.45,0,0,0,3.83,2.16l7.16.9c1,.13,1.54,1.11.95,1.76l-5.07,5.6a4,4,0,0,0-1,3.4l1.07,6.59A1.32,1.32,0,0,1,27.47,44l-8.1-2.55a6.32,6.32,0,0,0-3.8,0L7.47,44a1.31,1.31,0,0,1-1.82-1.3l1.06-6.59a4,4,0,0,0-1-3.4L.61,27.13c-.59-.65-.06-1.63,1-1.76l7.16-.9a5.49,5.49,0,0,0,3.84-2.16l3.8-5.47A1.44,1.44,0,0,1,18.58,16.84Z" fill="url(#linear-gradient-6)"/>
            <path d="M31.45,26.94l-.07-.85-.44.17a1.26,1.26,0,0,0-.45-.15l-5.86-.74a4.46,4.46,0,0,1-3.13-1.78l-3.12-4.53a1.17,1.17,0,0,0-1.82,0l-3.12,4.53a4.46,4.46,0,0,1-3.13,1.78l-5.85.74a1.23,1.23,0,0,0-.41.13l-.5-.08L3.49,27h0a.75.75,0,0,0,.2.55l4.18,4.56a3.24,3.24,0,0,1,.86,2.75L8,39.49H8l0,.6v0a.7.7,0,0,0,0,.25h0a1.11,1.11,0,0,0,1.48.78l6.53-2a5.18,5.18,0,0,1,3.07,0l6.52,2A1.12,1.12,0,0,0,27,40.41h0v0a1,1,0,0,0,0-.24v0l0-.66h-.08l-.71-4.6a3.24,3.24,0,0,1,.86-2.75l4.18-4.56a.76.76,0,0,0,.2-.61Z" fill="url(#linear-gradient-7)"/>
            <path d="M18.38,18.36l3.11,4.5a4.45,4.45,0,0,0,3.12,1.77l5.84.73c.82.1,1.24.9.75,1.44L27,31.32a3.3,3.3,0,0,0-.86,2.74L27,39.32a1.06,1.06,0,0,1-1.47,1l-6.51-2a5.15,5.15,0,0,0-3.06,0l-6.5,2a1.07,1.07,0,0,1-1.48-1l.81-5.26a3.24,3.24,0,0,0-.86-2.74L3.75,26.8c-.5-.54-.08-1.34.75-1.44l5.83-.73a4.43,4.43,0,0,0,3.12-1.77l3.11-4.5A1.17,1.17,0,0,1,18.38,18.36Z" fill="url(#linear-gradient-8)"/>
            <path d="M17.56,19.16c.55,0,.79.44,1,.8a37.05,37.05,0,0,1,2.35,4.35,1.32,1.32,0,0,1,.21,1c-.14.37-.58.54-1,.69a33,33,0,0,0-9.46,5.43,2,2,0,0,1-1.36-.63A46.6,46.6,0,0,1,5.52,27c-.9-1,1.17-1.22,1.84-1.29,1-.11,2-.25,3-.42A7.12,7.12,0,0,0,13,24.62a6.65,6.65,0,0,0,2.19-2.44A10.14,10.14,0,0,1,17,19.44a1.13,1.13,0,0,1,.49-.27Z" fill="#fff" opacity="0.35"/>
            <path d="M26,38.32c.05.76-.39,1.21-1.21,1-.43-.12-.82-.39-1.25-.47,0-.79,1.25-2.23,2.11-1.62C25.87,37.36,25.94,37.86,26,38.32Z" fill="#fff" opacity="0.2"/>
          </g>
          <g>
            <path d="M104.35,26.39l-4.25,3.42v.25l-3.92-.5a5.6,5.6,0,0,1-3.92-2.26l-3.88-5.71a1.46,1.46,0,0,0-2.27,0L82.23,27.3a5.6,5.6,0,0,1-3.92,2.26L74.68,30l-4.53-3.63-.37,5.17h0a1,1,0,0,0,.24.77l5.17,5.85a4.27,4.27,0,0,1,1,3.56l-.14.91-.68.07-.28,5.91A1.36,1.36,0,0,0,77,50l8.29-2.68a6.31,6.31,0,0,1,3.89,0L97.48,50a1.36,1.36,0,0,0,1.87-1.37l-.27-5.91-.65.1-.18-1.08a4.34,4.34,0,0,1,1-3.56l5.18-5.85a.91.91,0,0,0,.23-.77h0Z" fill="url(#linear-gradient-9)"/>
            <path d="M88.36,16.84l3.81,5.47A5.45,5.45,0,0,0,96,24.47l7.17.9c1,.13,1.53,1.11.94,1.76L99,32.73a4,4,0,0,0-1,3.4l1.07,6.59A1.32,1.32,0,0,1,97.25,44l-8.1-2.55a6.32,6.32,0,0,0-3.8,0L77.26,44a1.31,1.31,0,0,1-1.83-1.3l1.07-6.59a4,4,0,0,0-1-3.4l-5.06-5.6c-.6-.65-.07-1.63.94-1.76l7.16-.9a5.47,5.47,0,0,0,3.84-2.16l3.8-5.47A1.44,1.44,0,0,1,88.36,16.84Z" fill="url(#linear-gradient-10)"/>
            <path d="M101.23,26.94l-.07-.85-.44.17a1.26,1.26,0,0,0-.45-.15l-5.85-.74a4.51,4.51,0,0,1-3.14-1.78l-3.11-4.53a1.18,1.18,0,0,0-1.83,0l-3.12,4.53a4.46,4.46,0,0,1-3.13,1.78l-5.85.74a1.23,1.23,0,0,0-.41.13l-.5-.08-.06.84h0a.75.75,0,0,0,.2.55l4.18,4.56a3.27,3.27,0,0,1,.87,2.75l-.72,4.63h-.07l0,.6v0a1,1,0,0,0,0,.25h0a1.11,1.11,0,0,0,1.48.78l6.53-2a5.18,5.18,0,0,1,3.07,0l6.52,2a1.12,1.12,0,0,0,1.49-.78h0v0a1,1,0,0,0,0-.24v0l0-.66h-.08L96,34.86a3.3,3.3,0,0,1,.86-2.75L101,27.55a.73.73,0,0,0,.2-.61Z" fill="url(#linear-gradient-11)"/>
            <path d="M88.16,18.36l3.11,4.5a4.45,4.45,0,0,0,3.12,1.77l5.84.73c.82.1,1.24.9.75,1.44l-4.17,4.52A3.3,3.3,0,0,0,96,34.06l.82,5.26a1.07,1.07,0,0,1-1.48,1l-6.51-2a5.15,5.15,0,0,0-3.06,0l-6.5,2a1.07,1.07,0,0,1-1.48-1l.81-5.26a3.26,3.26,0,0,0-.85-2.74L73.53,26.8c-.49-.54-.07-1.34.75-1.44l5.83-.73a4.48,4.48,0,0,0,3.13-1.77l3.1-4.5A1.17,1.17,0,0,1,88.16,18.36Z" fill="url(#linear-gradient-12)"/>
            <path d="M87.34,19.16c.55,0,.79.44,1,.8a38.59,38.59,0,0,1,2.35,4.35,1.36,1.36,0,0,1,.2,1c-.14.37-.58.54-1,.69a32.94,32.94,0,0,0-9.47,5.43,2,2,0,0,1-1.36-.63A46.6,46.6,0,0,1,75.3,27c-.9-1,1.17-1.22,1.84-1.29,1-.11,2-.25,3-.42a7.12,7.12,0,0,0,2.64-.65A6.56,6.56,0,0,0,85,22.18a10.14,10.14,0,0,1,1.77-2.74,1.13,1.13,0,0,1,.49-.27Z" fill="#fff" opacity="0.2"/>
            <path d="M95.75,38.32c0,.76-.39,1.21-1.21,1-.43-.12-.82-.39-1.25-.47,0-.79,1.25-2.23,2.11-1.62C95.65,37.36,95.72,37.86,95.75,38.32Z" fill="#fff" opacity="0.2"/>
          </g>
        </g>
        <g>
          <polygon points="52.36 97.81 52.36 97.81 52.36 97.81 52.36 97.81" fill="#c8a87f"/>
          <polygon points="52.36 97.81 47.08 108.33 52.36 108.33 57.64 108.33 52.36 97.81" fill="#c8a87f"/>
        </g>
        <polygon points="20.95 96.02 14.23 87.35 23.73 80.53 40.51 90.9 37.09 94.52 20.95 96.02" fill="#c8a87f"/>
        <polygon points="83.78 96.02 90.49 87.35 80.99 80.53 64.22 90.9 67.63 94.52 80.04 95.67 80.93 96.82 82.12 95.86 83.78 96.02" fill="#c8a87f"/>
        <polygon points="16.79 104.54 14.95 114.77 30.24 113.44 33.9 103.06 16.79 104.54" fill="#c8a87f"/>
        <polygon points="52.36 136.11 52.36 124.58 77.15 121.03 78.44 132.38 52.36 136.11" fill="#c8a87f"/>
        <polygon points="14.23 87.35 23.73 80.53 40.51 90.9 38.12 93.43 23.5 84.75 16.09 89.74 14.23 87.35" fill="#b2926f"/>
        <polygon points="90.49 87.35 80.99 80.53 64.22 90.9 66.6 93.43 81.22 84.75 88.64 89.74 90.49 87.35" fill="#b2926f"/>
        <polygon points="49.64 108.33 52.36 103.62 55.29 108.33 57.64 108.33 52.36 97.81 47.08 108.33 49.64 108.33" fill="#b2926f"/>
        <polygon points="83 114.18 80.98 103.94 82.12 95.86 80.93 96.82 80.04 95.67 77.35 103.63 78.44 113.78 80.36 111.42 83 114.18" fill="#b2926f"/>
        <polygon points="67.67 71.38 69.78 50.38 71.8 53.51 74.2 51.19 72.36 70.42 74.99 82.11 67.67 71.38" fill="#b2926f"/>
        <polygon points="82.12 95.86 80.93 96.82 79.24 104.16 80.36 111.42 83 114.18 80.98 103.94 82.12 95.86" fill="#bf9d7c"/>
        <polygon points="74.2 51.19 71.8 53.51 70.15 71.13 74.99 82.11 72.36 70.42 74.2 51.19" fill="#bf9d7c"/>
        <path d="M78.43,132.38l-26.07,3.73-24.89-3.56c.17-.11.25-.27.43-.32.52-.12,1.08.09,1.71,0-.1-.63-.43-1.25.12-1.8.38-.4,1.06-.52,1.29,0,1.82-.37,1.15.75,2.52,1.62.69.43,2,.25,2.78.41.1-.74-.46-1.89.23-2.35s2.6.43,3.08.84c0-.77-.37-4.91.46-5.11a10.1,10.1,0,0,1,2.78,1.37c.59.74,0,1.44-.36,2.15,1.91-.12,2.51,2.46,4,2,.88-.3,1.17-1.49,1.72-1.88s.89-.32,1.65-.29,2.13-.17,2.37.47-.52.67,0,1.33a6.86,6.86,0,0,0,2.81,1.13c1.2.07,1.53-1.14,2.37-2-1-.28.23-1.39.7-1.65,1.07-.58,1.41-.06,2.41.67,2.08,1.52,6.47-.63,7.91,1.81,1.09-.56,3.22-.87,4-1.65.31-.31.54-1.23.88-1.65s.53-.57.79-.94c.64-.93.88-1.57,1.71-1.82Z" fill="#b2926f" opacity="0.5"/>
        <path d="M102.72,98.61,89.78,114.77l-5.69-.49a1.1,1.1,0,0,1,.36-.69,3.48,3.48,0,0,1,2.09.5c.11-.68.92-.5,1.47-.51.43-1-.51-1.8-.31-2.87a4.2,4.2,0,0,1,1.19-2.2c.78-.42,1,.34,1.76.39,2.08.11.91-2.55,1.13-3.65.33-1.68,2.63-4.14,4.33-4.44.31.8,1,.47,1.49.22.06.11.19.23.23.32.92-.68.61-2.27.66-3.31a9,9,0,0,1,2.09.19c-.62-1-1.65-2-1.16-3.19a1.84,1.84,0,0,1,.43-.6Z" fill="#b2926f" opacity="0.5"/>
        <path d="M30.77,110.52c-1,.06-.71.75-.9,1.45a3.05,3.05,0,0,1-1.26,1.62L15,114.77,2,98.61l.47-.69a4.64,4.64,0,0,1,1.07.81c.5.48.63,1,1.15,1.54s.73.4,1,1,.21.89.44,1.27c0,0,.52.32.63.44A15.29,15.29,0,0,1,8,104.69c.51.79,1,2.22,2,1.53.29-.2.07-.84.53-.92s.7.64.94.92a3.71,3.71,0,0,0,2.68,1.51c.87,0,1.13-.35,1.64.31a5.19,5.19,0,0,1,.4,1.88c.17,1.19.31,1.52,1.68,1.09-.17-1.2,2.09-2.53,3.13-2.41.87.09.29.24.79.72a3,3,0,0,0,2.39.86c1.93,0,5.16-2.46,6.2.19A3,3,0,0,1,30.77,110.52Z" fill="#b2926f" opacity="0.5"/>
      </g>
    </g>
  </g>
</svg>
